
<svg id="Layer_2" data-name="Layer 2" viewBox="0 0 298.26 107.77" {...props}>
  <g id="Layer_1-2" data-name="Layer 1">
    <rect x="37.74" y="1.22" width="7.3" height="51.43"/>
    <path d="m24.35,25.87c4.09-1.9,6.32-7.15,6.39-11.57-.07-8.01-8.15-12.45-16.13-12.48H0v51.13h17.66c7.95-.15,14.53-5.02,14.6-14-.07-5.17-2.08-9.27-7.91-13.08ZM7.61,8.52h8.83c4.34.05,7.03,3.54,7,7.91.03,4.24-4.25,7.72-8.52,7.61h-7.31v-15.52Zm9.13,37.43H7.61v-15.82h8.22c4.48-.01,8.84,3.55,8.83,7.91.01,4.43-3.55,8-7.92,7.91Z"/>
    <path d="m75.18,0c-14.84-.03-26.75,11.89-26.79,26.48.01,14.78,12,26.77,26.79,26.78,14.56-.06,26.48-11.97,26.47-26.78C101.66,11.89,89.74-.03,75.18,0Zm0,45.96c-10.66.1-19.38-8.46-19.48-19.11v-.37c-.07-10.62,8.62-19.31,19.48-19.18,10.58-.13,19.28,8.56,19.17,19.18.11,10.83-8.58,19.52-19.17,19.48Z"/>
    <polygon points="143.35 29.52 170.74 29.52 170.74 52.04 198.74 52.04 201.78 45.35 178.04 45.35 178.04 29.52 194.78 29.52 194.78 22.82 178.04 22.82 178.04 7.91 198.43 7.91 195.39 1.22 170.74 1.22 170.74 22.82 143.35 22.82 143.35 1.22 136.04 1.22 136.04 52.04 143.35 52.04 143.35 29.52"/>
    <polygon points="111.39 52.04 118.7 52.04 118.7 7.91 131.48 7.91 131.48 1.22 99.83 1.22 98 7.91 111.39 7.91 111.39 52.04"/>
    <path d="m220.96,29.52c6.95-.84,12.41-6.84,12.47-14-.06-7.97-6.44-14.34-14.3-14.3h-15.52v50.82h7.61v-22.52l19.47,23.74,6.4-3.65-16.13-20.09Zm-9.74-6.7V7.91h7.61c3.99.03,7.3,3.34,7.3,7.31,0,4.2-3.31,7.51-7.3,7.6h-7.61Z"/>
    <polygon points="248.65 22.52 268.13 51.13 288.21 22.22 290.65 52.04 298.26 52.04 293.69 1.22 268.43 38.35 242.87 .91 238.61 52.04 246.22 52.04 248.65 22.52"/>
    <path d="m249.87,63.3c-19.73-.51-39.85,3.51-51.74,5.78-12.95,2.7-61.28,16.18-86.43,23.74-23.81,7.07-38.31,8.03-49.3,7.91h.3l-6.7-.3C36.25,99.01,21.81,98.01,0,80.34v8.83c21.2,15.79,36.55,16.86,55.69,18.26l6.39.3c.15.09.3,0,.3,0,11.5.09,26.63-.91,51.43-8.22,24.99-7.57,73.31-21.02,85.52-23.43,11.75-2.38,31.37-6.3,50.22-5.78h.3c21.18.11,37.83,9.79,48.39,16.74l-.3-8.22c-10.98-6.96-27.6-15.38-48.09-15.52h0Z"/>
  </g>
</svg>