
<svg id="Layer_2" data-name="Layer 2" viewBox="0 0 2822.86 1763.82">
  <g id="cameraFrame">
    <g id="_InnerGroup_" data-name="&amp;lt;InnerGroup&amp;gt;">
      <polygon points="509 0 30.87 0 2.29 0 2.29 28.53 2.29 505.8 30.87 505.8 30.87 28.53 509 28.53 509 0"/>
      <polygon points="0 1258.02 0 1735.3 0 1763.82 28.58 1763.82 506.71 1763.82 506.71 1735.3 28.58 1735.3 28.58 1258.02 0 1258.02"/>
      <polygon points="2313.86 1763.82 2791.99 1763.82 2820.57 1763.82 2820.57 1735.3 2820.57 1258.02 2791.99 1258.02 2791.99 1735.3 2313.86 1735.3 2313.86 1763.82"/>
      <polygon points="2822.86 505.8 2822.86 28.53 2822.86 0 2794.29 0 2316.16 0 2316.16 28.53 2794.29 28.53 2794.29 505.8 2822.86 505.8"/>
    </g>
    <g id="_OuterGroup_" data-name="&amp;lt;OuterGroup&amp;gt;">
      <g id="_BottomGroup_" data-name="&amp;lt;BottomGroup&amp;gt;">
        <polygon points="1679.9 1084.02 1679.9 1065.38 1679.9 997.68 1661.23 997.68 1661.23 1065.38 1593.41 1065.38 1593.41 1084.02 1661.23 1084.02 1679.9 1084.02"/>
        <polygon points="1159.98 1084.02 1227.79 1084.02 1227.79 1065.38 1159.98 1065.38 1159.98 997.68 1141.3 997.68 1141.3 1065.38 1141.3 1084.02 1159.98 1084.02"/>
      </g>
      <g id="_TopGroup_" data-name="&amp;lt;TopGroup&amp;gt;">
        <polygon points="1142.96 679.81 1142.96 698.45 1142.96 766.14 1161.63 766.14 1161.63 698.45 1229.45 698.45 1229.45 679.81 1161.63 679.81 1142.96 679.81"/>
        <polygon points="1662.89 679.81 1595.07 679.81 1595.07 698.45 1662.89 698.45 1662.89 766.14 1681.56 766.14 1681.56 698.45 1681.56 679.81 1662.89 679.81"/>
      </g>
    </g>
    <g id="_RecordGroup_" data-name="&amp;lt;RecordGroup&amp;gt;">
      <ellipse cx="152.99" cy="185.55" rx="48.72" ry="48.63"/>
      <g>
        <path fill="red" d="m255.86,234.95h-13.67v-98.79h25.71c5.35,0,10.33.59,14.93,1.78,4.61,1.19,8.64,2.94,12.11,5.27,3.47,2.33,6.19,5.24,8.17,8.75,1.98,3.51,2.97,7.54,2.97,12.09,0,6.82-2.21,12.76-6.61,17.8-4.41,5.04-10.58,8.7-18.5,10.98l34.92,42.13h-16.79l-32.25-39.76c-.5,0-1.24.03-2.23.07-.99.05-2.03.07-3.12.07h-5.65v39.61Zm36.56-70.61c0-3.06-.67-5.71-2.01-7.94-1.34-2.23-3.15-4-5.42-5.34-2.28-1.33-4.91-2.32-7.88-2.97-2.97-.64-6.09-.96-9.36-.96h-11.89v37.23h6.84c4.16,0,8.05-.39,11.67-1.19,3.61-.79,6.76-2,9.44-3.63,2.68-1.63,4.78-3.71,6.32-6.23,1.53-2.52,2.3-5.51,2.3-8.97Z"/>
        <path d="m328.97,136.16h55.13v11.13h-41.46v31.6h39.68v11.13h-39.68v33.82h41.91v11.13h-55.58v-98.79Z"/>
        <path d="m450.68,134.38c4.46,0,9.11.42,13.97,1.26,4.85.84,8.92,1.95,12.19,3.34l-2.23,10.53c-3.37-1.19-6.98-2.15-10.85-2.89-3.86-.74-7.68-1.11-11.44-1.11-12.39,0-22.04,3.46-28.98,10.38-6.94,6.92-10.4,16.81-10.4,29.67s3.47,22.75,10.4,29.67c6.93,6.92,16.59,10.38,28.98,10.38,3.76,0,7.58-.37,11.44-1.11,3.86-.74,7.48-1.71,10.85-2.89l2.23,10.53c-3.27,1.39-7.33,2.5-12.19,3.34-4.86.84-9.51,1.26-13.97,1.26-8.12,0-15.38-1.29-21.77-3.86-6.39-2.57-11.77-6.13-16.12-10.68-4.36-4.55-7.7-9.94-10.03-16.17-2.33-6.23-3.49-13.05-3.49-20.47s1.16-14.24,3.49-20.47c2.33-6.23,5.67-11.62,10.03-16.17,4.36-4.55,9.73-8.11,16.12-10.68,6.39-2.57,13.65-3.86,21.77-3.86Z"/>
      </g>
    </g>
  </g>
</svg>