<?xml version="1.0" encoding="UTF-8"?>
<svg id="Layer_2" data-name="Layer 2" xmlns="http://www.w3.org/2000/svg" viewBox="0 0 114.71 38.35">
  <defs>
    <style>
      .cls-1 {
        fill: #fff;
      }
    </style>
  </defs>
  <g id="Layer_1-2" data-name="Layer 1">
    <g>
      <path class="cls-1" d="m2.57,34.17h.95c.43-.19.43-.38.62-.76h.19v2.76h-.38c0-.81-.24-1-.43-1.19-.19-.19-.38-.19-1.19-.19h-.38v.57c0,1.57.19,2,.38,2.19.24.19.43.19,1,.19h.19l-.19.38H0v-.38c.43,0,.59-.02.76-.19,0-.19.19-.62.19-2v-1.57c0-1.57,0-2-.19-2.19-.17-.17-.33-.19-.76-.19v-.38h5.7v1.95l-.38.24c0-.62-.24-1-.62-1.43-.19-.19-.38-.38-1.38-.38-.76,0-1,0-1.19.19v2.57l.43-.19h0Zm5.89,0h.38c.62,0,1,0,1.19-.19.19,0,.19-.19.38-.81h.24v2.61l-.43.19v-.19c0-.62-.19-.81-.38-1-.19,0-.38-.19-1-.19h-.38v1.19c0,.95,0,1.38.19,1.57.19.19.38.38,1.38.38s1.19-.19,1.57-.38c.19-.43.62-1,.62-1.38l.19-.19.19.19v2.14h-6.51v-.38c.62,0,.81,0,1-.19.19-.19.19-.62.19-2.19v-1.57c0-1,0-1.81-.19-2,0-.19-.38-.19-.81-.19l-.19-.19.19-.19h5.75l.19,1.95-.43.24c-.19-.62-.38-1-.57-1.43-.19-.19-.57-.38-1.57-.38-.81,0-1,0-1.19.19v2.38h0Zm9.65-2.95h.19c0,.57-.19,1.38-.19,1.95h-.38c0-.95-.62-1.76-1.57-1.76-.81,0-1.19.57-1.19,1.19,0,.81.38,1,1.38,1.38l.38.19c1.19.43,1.76,1.19,1.76,2,0,1.38-.95,2.19-2.33,2.19-.81,0-1.62-.43-1.81-.43s-.38.19-.38.43h-.38c0-.43.19-1,.19-1.81v-.57h.38c0,.95.81,1.76,1.76,1.76,1,0,1.19-.57,1.19-1.19,0-.57-.19-1-1.38-1.57l-.57-.19c-1-.43-1.38-1-1.38-1.81,0-1,.76-1.95,2.38-1.95.38,0,.76.19.95.19.19.19.43.19.62.19,0,0,.19,0,.38-.19h0Zm4.94,4.32c0,1,0,1.81.19,2,0,.19.38.19,1,.19v.38h-3.56v-.38c.57,0,.81,0,1-.19.19-.19.19-.62.19-2.19v-3.75h-.38c-.81,0-1.19.19-1.38.38-.24.43-.62,1-.81,1.62h-.19v-2.38l.19-.19c.38.19,1,.19,1.76.19h2.76c1,0,1.57,0,2-.19v.19l.19,2.38h-.38c-.24-.62-.43-1.19-.62-1.62-.38-.19-.57-.38-1.57-.38h-.38v3.94h0Zm5.51,0c0,1,0,1.81.19,2,0,.19.38.19,1,.19v.38h-3.56v-.38c.57,0,.81,0,1-.19.19-.19.19-.62.19-2.19v-1.57c0-1,0-1.81-.19-2,0-.19-.43-.19-1-.19v-.38h3.56v.38c-.62,0-.81,0-1,.19-.19.19-.19.62-.19,2.19v1.57h0Zm5.32,1.19h0c.38-.57.95-2.38,1.38-3.14.19-.81.38-1.19.38-1.38,0-.43-.19-.62-1-.81v-.19h2.76v.38c-.57,0-.76.19-.95.38-.24.43-.43,1-.62,1.81-.57,1.19-1.19,2.57-1.57,3.75-.19.19-.19.38-.19.57-.19,0-.62.24-.81.24-.19-.43-.38-1-.57-1.43-1.19-2.95-1.76-4.51-2-4.94-.19-.38-.38-.38-.76-.57v-.19h3.14v.19c-.76.19-1,.38-1,.57,0,.24.24.62.43,1.62.38.76.95,2.38,1.38,3.14h0Zm4.89-.95c-.38.57-.38,1.14-.38,1.38,0,.19,0,.57.81.57h.19l-.19.38h-2.76v-.38c.57,0,.76-.19.95-.57.43-.62,1.19-2.57,2-4.56,0-.19.19-.38.19-.62,0,0-.19,0-.38-.19l.19-.19c.38,0,.57-.19,1.19-.76h.19c0,.38.19.95.38,1.57.62,1.57,1.19,3.37,1.57,4.32,0,.19.19.43.19.62.24.19.43.38.81.38v.38h-3.14v-.38c.76,0,.95-.19.95-.38,0-.43,0-.62-.38-1.57v-.24l-2.38.24h0Zm1.19-3.18c-.19.57-.76,1.76-1,2.38v.19h2v-.19c-.19-.62-.57-1.81-1-2.38h0Zm4.13,5.51h-.19v-.38c.62,0,.81,0,1-.19.19-.19.19-.62.19-2.19v-1.57c0-1,0-1.81-.19-2,0-.19-.19-.19-.81-.19v-.38h3.37v.38c-.62,0-.81,0-1,.19-.19.19-.19.62-.19,2.19v.62c0,1.95,0,2.57.19,2.76.19.19.57.38,1.57.38.81,0,1-.19,1.38-.57.19-.24.62-.81.81-1.38h.38l-.19,2.33h-6.32Zm13.02-6.89c3.33,0,3.94,1.76,3.94,3.37s-1,3.52-3.94,3.52h-3.75v-.38c.38,0,.81,0,.81-.19.19-.19.19-.62.19-2.19v-3.56c-.19-.19-.38-.19-1-.19v-.38h3.75Zm-1.57,3.94c0,1.57.19,2,.38,2.19.19.19.38.38,1.19.38,1.38,0,2.57-1.19,2.57-3.14s-1-2.99-2.95-2.99c-.43,0-.81,0-1,.19-.19.19-.19.43-.19,1.81v1.57h0Zm8.46-1h.57c.62,0,1,0,1-.19.19,0,.38-.19.38-.81h.43v2.61l-.43.19v-.19c0-.62-.19-.81-.38-1-.19,0-.38-.19-1-.19h-.57v1.19c0,.95.19,1.38.38,1.57.19.19.43.38,1.38.38.81,0,1.19-.19,1.38-.38.43-.43.62-1,.81-1.38v-.19l.38.19-.19,2.14h-6.32v-.38c.62,0,.81,0,1-.19,0-.19.19-.62.19-2.19v-1.57c0-1,0-1.81-.19-2-.19-.19-.38-.19-1-.19v-.38h5.94l.19,1.95h-.19l-.19.24c-.24-.62-.43-1-.62-1.43-.38-.19-.57-.38-1.57-.38-.81,0-1,0-1.19.19-.19.19-.19.62-.19,1.38v1h0Zm9.46.62c0,1.76,1,2.95,2.38,2.95.57,0,1.19-.19,1.57-.57.19-.24.38-.81.38-1.19l.19-.19.19.19c0,.57.24,1.57.24,2.14h-.24q-.19-.19-.38-.19h-.38c-.62.19-1.19.43-1.76.43-2.19,0-3.56-1.43-3.56-3.56s1.38-3.75,3.56-3.75c.57,0,1.14.19,1.57.19.19.19.38.19.38.19.19,0,.38-.19.38-.38l.43.19c-.24.38-.24,1.19-.24,2.19h-.38c0-.62-.38-1.19-.57-1.43-.43-.38-.81-.57-1.38-.57-1.19,0-2.38,1.19-2.38,3.37h0Zm7.51,1c-.24.57-.43,1.14-.43,1.38,0,.19.19.57,1,.57v.38h-2.76v-.38c.57,0,.81-.19,1-.57.38-.62,1.19-2.57,1.95-4.56v-.62l-.19-.19v-.19c.38,0,.81-.19,1.38-.76h.19c0,.38,0,.95.19,1.57.81,1.57,1.38,3.37,1.57,4.32.24.19.24.43.43.62.19.19.38.38.76.38v.38h-3.14v-.38c.81,0,1-.19,1-.38,0-.43-.19-.62-.62-1.57v-.24l-2.14.24h-.19Zm1.14-3.18c-.19.57-.57,1.76-.76,2.38v.19h1.76l.19-.19c-.38-.62-.76-1.81-.95-2.38h-.24Zm10.26,2.38v-2.38c-.19-.38-.19-.81-.19-.81-.19-.19-.62-.19-1.19-.38v-.19h2.95v.19c-.19.19-.57.19-.76.38-.24.19-.24.43-.24,2.19v1c0,1.38-.19,2.38,0,3.14l-.38.24c-.19-.62-.57-1.43-2.14-2.99-.43-.57-1.62-1.76-2.38-2.57v3.94c0,.43.19.62.19.81.19.19.38.19,1,.19h.19l-.19.38h-2.99v-.38c.43,0,.81,0,1-.19,0-.19.19-.81.19-2.38v-.81c0-1.95-.19-2.14-.19-2.38-.19-.19-.38-.38-1-.38v-.38h2.38l.19.38c.24.38.81,1.19,1.38,1.81,1.19,1.19,1.81,1.76,2.19,2.57v-1h0Zm8.08,0v-2.38c0-.38,0-.81-.19-.81-.19-.19-.38-.19-1-.38h-.19l.19-.19h2.95v.19c-.38.19-.76.19-.95.38,0,.19-.24.43-.24,2.19v4.13l-.38.24c-.19-.62-.57-1.43-1.95-2.99-.62-.57-1.81-1.76-2.38-2.57h-.19v1.38c0,1.19,0,1.81.19,2.57,0,.43,0,.62.19.81.19.19.38.19,1,.19v.38h-3.18v-.38c.43,0,.81,0,1-.19.19-.19.19-.81.19-2.38v-.81c0-1.95,0-2.14-.19-2.38,0-.19-.19-.38-.76-.38l-.24-.19.24-.19h2.14l.19.38c.43.38,1,1.19,1.38,1.81,1.38,1.19,1.81,1.76,2.19,2.57v-1h0Zm4.51-.81h.43c.57,0,.95,0,.95-.19.19,0,.43-.19.62-.81h.19v2.61l-.38.19v-.19c0-.62-.24-.81-.43-1-.19,0-.38-.19-.95-.19h-.43v1.19c0,.95,0,1.38.19,1.57.24.19.43.38,1.38.38.81,0,1.19-.19,1.38-.38.43-.43.62-1,.81-1.38v-.19l.38.19-.19,2.14h-6.27v-.38c.57,0,.76,0,.95-.19,0-.19.19-.62.19-2.19v-1.57c0-1,0-1.81-.19-2-.19-.19-.38-.19-.95-.19v-.38h5.89l.19,1.95h-.19l-.19.24c-.19-.62-.43-1-.62-1.43-.19-.19-.57-.38-1.57-.38-.76,0-1,0-1.19.19v2.38h0Zm9.65-2.95h.09v.49c-.1.49-.09,1.04-.09,1.46h-.38c0-.95-.57-1.76-1.57-1.76-.81,0-1.19.57-1.19,1.19,0,.81.38,1,1.38,1.38l.19.19c.95.29,1.44.74,1.66,1.26v1.64c-.29.82-1,1.28-2.04,1.28s-1.57-.43-1.76-.43-.43.19-.43.43h-.38v-.02c0-.43.19-.99.19-1.79,0-.19,0-.38-.19-.57h.62c0,.95.76,1.76,1.76,1.76.76,0,1.19-.57,1.19-1.19,0-.57-.19-1-1.57-1.57l-.43-.19c-.95-.43-1.38-1-1.38-1.81,0-1,.81-1.95,2.38-1.95.19,0,.57.19,1,.19.19.19.38.19.57.19,0,0,.19,0,.38-.19h0Z"/>
      <path class="cls-1" d="m55.55,0c-11.67.56-20.72,6.05-20.72,12.45,0,6.89,10.07,12.45,22.67,12.45s22.67-5.56,22.67-12.45c0-6.4-9.01-11.89-20.71-12.45h-3.9Zm1.95,24.47c-11.83,0-21.86-5.51-21.86-12.02S45.67.38,57.5.38s21.67,5.7,21.67,12.07-9.84,12.02-21.67,12.02h0Zm17.34-13.64c-.81.19-1.38.43-2.19.62-.38.19-.76.38-1.14.38h-.24v-.19s.24,0,.24-.19c.57-.62,1.38-1.19,2.14-1.81.19-.19.62-.38.62-1-.24,0-.62.24-.81.24-1.38.76-2.57,1.57-3.75,2.57,0,0,0,.19-.19.19-.57.38-.81,1.57-1.76,1.57q-.62-.19-.81-.19c1-.81,2.76-3.37,2.95-3.94,0,0,.24-.62,0-.62-.95.43-1.76,1.19-2.57,1.81.24-.19.62-.81.43-1.19-1.57.19-3.75,2.38-3.75,2.38-.57.38-.57,1.19-1.38,1.19-.38-.19-.81-.19-1.19-.19.38-.43,1-.62,1.38-1,.81-.62,1.76-1.38,2.57-2.19,0-.19.38-.19.19-.38-.38-.24-.57,0-1,.19-1.38.57-2.14,1.38-3.14,2.38-.19.19-.38.57-.57.76-.62,0-1,0-1.38-.19.19-.19.38-.38.57-.57,1.19-.81,2.19-1.62,2.95-2.8,0-.57-.38-.19-.57,0-1.57.62-2.76,1.62-3.56,2.99-.19,0-.19.19-.19.19-.57,0-1.19-.19-1.76-.19v-.19c1.38-.62,2.57-1.81,3.52-3.37,0,0,.81-1.38-.95-.19-1.19.76-2.38,1.95-3.18,3.56h-.95c.76-1.19,1.76-2.38,2.33-3.75,0-.19.19-.81-.19-.81-1.19.62-1.95,2-2.57,3.18-.19.38-.19.76-.38,1.19-.81,0-1.38,0-2.19-.24,1-.76,2-1.38,2.99-2.38,0-.38.95-.95.95-1.76-.19-.19-.57,0-.76,0l-2.57,2.19h-.19c.38-.81,1.38-1.81,1.76-2.57,0-.43.19-.62.19-.81l-.19-.19c-1.95.81-3.56,2.76-4.13,5.13-.19.19-.38.62-.57.62,0-.81-.24-1.43-.62-2-.81-1.57-1.95-2.95-3.33-3.75-.43-.19-.43,0-.43.38.19,1.19,1,1.81,1.57,2.76.62,1,1.38,1.81,2,2.61-.19.19-5.51,1.38-6.51,2.14-.57.43-1.38,1-1.38,2.38,0,.43.38.81.81,1,.38,0,.57.19.76,0,1-1.38,2.19-2.57,3.37-3.37.95-.38,1.57-.76,2.57-.95.57.38.76.95,1.38,1.38,1.19.95,2.14,1.76,3.52,1.95h.19v-.19c-.76-1.19-2.14-1.95-3.33-2.57-.19-.19-.81-.38-.81-.81.81-.19,1.81-.38,2.76,0,1.19,2,2.38,4.18,4.37,5.37,0,0,.19-.19,0-.43-1.19-2.95-2-3.33-3.37-4.7,0,0-.19-.43,0-.43h1.19c.38,0,1,0,1.19.19,0,2,1.38,3.56,2.14,5.18,0,0,.24.19.24-.24-.43-3.52-1.81-4.32-2-4.94h.62c.95,1.81,2.14,3.18,3.52,4.18.19,0,.43,0,.19-.43-.38-1.38-1.76-2.14-2.76-3.33l-.19-.19h.19c.43,0,1,0,1.19.19.62,1,1.19,1.76,2,2.57.57.38,1.19,1.19,1.95,1.38l.19-.19c-.57-1.62-2.14-2.19-3.14-3.18-.19-.19-.19-.38,0-.38l1.76.19c2.57,3.56,3.56,3.37,3.56,3.37,0,0,.76.19.38-.43-.76-.95-1.57-1.38-2.57-2.14-.19-.19-.57-.43-.57-.81q.38.19,1.19.19c.19,0,.57,0,.76.19,1.19.62,1.38,2.38,4.75,2.99,0,0,.19-.19,0-.43-1-.57-3.37-2.33-3.56-2.57.38,0,1.57.24,1.76.43,1.81.76,2.8,1.57,5.13,1.19.19-.24-.19-.43-.38-.62l-1.38-.38c-.19,0-.81-.19-1.19-.38,1.38-.43,3.37-1,4.51-1.62.24-.19.43-.38.62-.57.19,0,.38-.19.38-.43,0-.19-.19-.19-.19-.19h0Zm-23.86.43c-.19-.24-.19-.43,0-.43,0,0,.43-1,1-.76,0,.19-.76,1.19-1,1.19h0Zm15.59.19c-.19.38,0,1-.38,1.38l-2.19-.19c1.19-.43,2.38-1.38,2.95-1.81l-.38.62h0Zm2.38,1.76c0-.19.19-.38.38-.57.81-.62,1,0,1,0-.43.19-1,.57-1.38.57h0Z"/>
    </g>
  </g>
</svg>