<?xml version="1.0" encoding="UTF-8"?>
<svg id="Layer_2" data-name="Layer 2" xmlns="http://www.w3.org/2000/svg" viewBox="0 0 282.54 72.93">
  <defs>
    <style>
      .cls-1 {
        fill: #fff;
      }
    </style>
  </defs>
  <g id="Layer_1-2" data-name="Layer 1">
    <g>
      <path classNames="cls-1" d="m240.55,42.78c-19.15,0-41.99-3.71-41.99-21.39,0-12.99,16.48-21.39,41.99-21.39s41.99,8.4,41.99,21.39c0,19.31-29.36,21.39-41.99,21.39m0-40.09c-14.6,0-30.31,5.85-30.31,18.71,0,11.89,11.05,18.7,30.31,18.7s30.31-7.34,30.31-18.7c0-12.85-15.71-18.71-30.31-18.71M83.22,26.34l-11.64-.2c-2.81,8.74-13.87,13.95-29.59,13.95-19.26,0-30.31-6.82-30.31-18.71,0-12.85,15.71-18.7,30.31-18.7,12.35,0,26.29,4.4,29.59,14.23l11.64-.21C79.75,6.4,63.96,0,41.99,0,16.48,0,0,8.4,0,21.39c0,17.68,22.83,21.39,41.99,21.39,10.81,0,36.46-1.6,41.23-16.44m73.47,13.27h-44.42V.4h-11.68v41.9h56.1v-2.68h0ZM181.13.4h-11.68v41.9h11.68V.4h0Z"/>
      <path classNames="cls-1" d="m21.34,68.02l1.68,4.15h1.75l-6.39-15.31-6.56,15.31h1.73l1.71-4.15h6.07Zm-.62-1.51h-4.81l2.43-5.86,2.37,5.86h0Zm40.08-8.96h-1.71l5.45,15.38,4.6-11.77,4.6,11.77,5.45-15.38h-1.71l-3.73,10.95-4.6-11.71-4.6,11.71-3.73-10.95h0Zm62.19,10.47l1.68,4.15h1.75l-6.39-15.31-6.56,15.31h1.73l1.71-4.15h6.07Zm-.62-1.51h-4.81l2.43-5.86,2.38,5.86h0Zm43.02-7.45h.47c1.91,0,3.62.23,3.62,2.64,0,2.27-1.81,2.62-3.6,2.62h-.49v-5.26h0Zm0,6.69h.4l4.3,6.42h1.94l-4.52-6.55c2.19-.19,3.56-1.78,3.56-4.03,0-3.3-2.51-4.03-5.2-4.03h-2.05v14.62h1.58v-6.42h0Zm44.47,6.42h2.64c2.22,0,3.92-.29,5.62-1.84,1.56-1.43,2.31-3.31,2.31-5.45s-.73-4.13-2.35-5.57c-1.68-1.47-3.41-1.76-5.54-1.76h-2.67v14.62h0Zm1.58-1.51v-11.6h1.15c1.68,0,3.11.23,4.41,1.42,1.22,1.1,1.85,2.72,1.85,4.38s-.6,3.16-1.77,4.28c-1.3,1.26-2.75,1.51-4.49,1.51h-1.15Zm54.74-11.09c-.75-1.43-2.09-2.27-3.67-2.27-2.11,0-3.98,1.45-3.98,3.72,0,2.1,1.43,2.97,3.09,3.74l.87.39c1.32.62,2.62,1.2,2.62,2.91s-1.39,2.85-2.92,2.85-2.64-1.22-2.85-2.72l-1.55.45c.45,2.27,2.15,3.78,4.43,3.78,2.47,0,4.47-1.96,4.47-4.52,0-2.33-1.56-3.28-3.41-4.11l-.94-.43c-.96-.45-2.22-1.03-2.22-2.29,0-1.34,1.09-2.27,2.36-2.27s1.89.58,2.45,1.59l1.26-.83h0Z"/>
    </g>
  </g>
</svg>