<?xml version="1.0" encoding="UTF-8"?>
<svg id="Layer_2" data-name="Layer 2" xmlns="http://www.w3.org/2000/svg" viewBox="0 0 113.25 129.25">
  <defs>
    <style>
      .cls-1 {
        fill: #6db1d8;
      }

      .cls-1, .cls-2 {
        fill-rule: evenodd;
      }

      .cls-2 {
        fill: #fff;
      }
    </style>
  </defs>
  <g id="Layer_1-2" data-name="Layer 1">
    <path className="cls-2" d="m25.58,119.07h2.25v.67h-2.25v1.35h2.57v.67h-3.33v-4.57h3.27v.67h-2.51v1.22h0Zm3.49-1.89h.77v2.7c0,.44.07.78.21.99.14.22.41.33.82.33.41,0,.68-.11.83-.34.15-.22.22-.55.22-.99v-2.7h.75v2.82c0,.47-.11.9-.33,1.28-.22.39-.71.58-1.47.58-.52,0-.91-.1-1.18-.31-.27-.21-.44-.44-.51-.71-.07-.27-.11-.55-.11-.85v-2.82h0Zm4.95,4.57v-4.57h1.9c.53,0,.93.09,1.21.27.28.18.42.51.42,1,0,.26-.05.47-.15.64-.1.17-.2.28-.31.35-.1.06-.2.11-.29.14v.03c.25.07.42.2.5.4.08.2.12.45.13.76,0,.04,0,.1,0,.18s0,.15,0,.22c0,.13,0,.23.03.31.02.08.06.18.12.28h-.77c-.09-.15-.14-.44-.14-.85,0-.21-.02-.34-.03-.38-.02-.18-.08-.33-.18-.44-.1-.12-.3-.17-.59-.17h-1.09v1.84h-.75Zm.75-2.47h1.1c.58,0,.88-.25.88-.75,0-.29-.08-.48-.25-.57-.16-.08-.4-.13-.7-.13h-1.03v1.44h0Zm5.94,2.6c-.26,0-.54-.05-.85-.14-.31-.09-.61-.32-.88-.68-.27-.36-.41-.89-.41-1.59,0-1.01.24-1.67.72-1.97s.96-.45,1.43-.45.96.15,1.44.45c.48.3.72.95.72,1.96s-.24,1.65-.73,1.96c-.49.31-.96.46-1.43.46h0Zm0-.65c.52,0,.87-.18,1.06-.54.19-.36.28-.77.28-1.24s-.09-.88-.28-1.24c-.19-.35-.54-.53-1.06-.53s-.85.18-1.04.53c-.19.35-.28.76-.28,1.24s.09.88.28,1.24c.19.36.54.54,1.04.54h0Zm3.31-4.05h1.88c.39,0,.74.09,1.06.27.32.18.48.55.48,1.11.01.97-.51,1.46-1.58,1.46h-1.08v1.75h-.75v-4.57h0Zm.75.66v1.53h.97c.3,0,.53-.06.69-.18.16-.12.23-.33.23-.62,0-.27-.08-.46-.24-.57-.15-.11-.38-.16-.68-.16h-.97Zm4.5,1.23h2.25v.67h-2.25v1.35h2.57v.67h-3.33v-4.57h3.27v.67h-2.51v1.22h0Zm4.25-2.44l-.46,1.56h-.5l.28-1.56h.68Zm.88,3.65h.77c0,.13.02.27.07.4.05.14.15.26.31.38.16.11.38.17.68.17.61.01.93-.22.96-.71,0-.24-.07-.41-.22-.51-.15-.11-.35-.19-.58-.24-.06-.01-.14-.03-.22-.05-.09-.02-.2-.04-.34-.07-.29-.06-.52-.14-.71-.22-.19-.08-.34-.21-.45-.39-.12-.17-.18-.4-.18-.68,0-.39.14-.71.41-.95.27-.24.7-.37,1.3-.37.61,0,1.03.13,1.26.41.23.28.36.59.38.93h-.73c0-.18-.08-.35-.21-.5-.13-.15-.37-.22-.72-.22-.27,0-.49.05-.66.16-.17.1-.26.27-.26.5,0,.16.04.29.13.38.09.09.19.15.31.19.12.04.31.09.58.15.09.02.19.04.31.07.12.03.21.05.28.06.29.07.55.2.77.37.22.18.34.46.35.84,0,.18-.01.35-.06.52s-.14.33-.28.48c-.14.15-.32.27-.56.36-.24.09-.53.13-.89.12-.68-.02-1.15-.19-1.4-.52-.25-.33-.38-.69-.39-1.07h0Zm7.05-3.11h1.88c.39,0,.74.09,1.06.27.32.18.48.55.48,1.11.01.97-.51,1.46-1.58,1.46h-1.08v1.75h-.75v-4.57h0Zm.75.66v1.53h.97c.3,0,.53-.06.69-.18.16-.12.23-.33.23-.62,0-.27-.08-.46-.24-.57-.15-.11-.38-.16-.68-.16h-.97Zm3.75,3.91v-4.57h1.9c.53,0,.93.09,1.21.27.28.18.42.51.42,1,0,.26-.05.47-.15.64-.1.17-.2.28-.31.35-.1.06-.2.11-.29.14v.03c.25.07.42.2.5.4.08.2.12.45.13.76,0,.04,0,.1,0,.18s0,.15,0,.22c0,.13,0,.23.03.31.02.08.06.18.12.28h-.77c-.09-.15-.14-.44-.14-.85,0-.21-.02-.34-.03-.38-.02-.18-.08-.33-.18-.44-.1-.12-.3-.17-.59-.17h-1.09v1.84h-.75Zm.75-2.47h1.1c.58,0,.88-.25.88-.75,0-.29-.08-.48-.25-.57-.16-.08-.4-.13-.7-.13h-1.03v1.44h0Zm4.81-.21h2.25v.67h-2.25v1.35h2.57v.67h-3.33v-4.57h3.27v.67h-2.51v1.22h0Zm4.31,2.68h-.72v-4.57h1.07l1.1,3.28.07.52h.05l.06-.52,1.11-3.28h1.07v4.57h-.73v-3.28l.06-.52h-.06l-.14.52-1.11,3.28h-.58l-1.11-3.28-.15-.52h-.05l.05.52v3.28h0Zm5.24-4.57h.75v4.57h-.75v-4.57h0Zm2.93,1.89h2.25v.67h-2.25v1.35h2.57v.67h-3.33v-4.57h3.27v.67h-2.51v1.22h0Zm3.59,2.68v-4.57h1.9c.53,0,.93.09,1.21.27.28.18.42.51.42,1,0,.26-.05.47-.15.64-.1.17-.2.28-.31.35-.1.06-.2.11-.29.14v.03c.25.07.42.2.5.4.08.2.12.45.13.76,0,.04,0,.1,0,.18s0,.15,0,.22c0,.13,0,.23.03.31.02.08.06.18.12.28h-.77c-.09-.15-.14-.44-.14-.85,0-.21-.02-.34-.03-.38-.02-.18-.08-.33-.18-.44-.1-.12-.3-.17-.59-.17h-1.09v1.84h-.75Zm.75-2.47h1.1c.58,0,.88-.25.88-.75,0-.29-.08-.48-.25-.57-.16-.08-.4-.13-.7-.13h-1.03v1.44h0Zm-60.5,8.26h.77c-.04.44-.21.84-.5,1.19-.29.35-.76.52-1.41.52-.45,0-.91-.15-1.38-.46-.48-.3-.73-.95-.75-1.93-.02-.71.1-1.25.36-1.62.26-.37.55-.6.86-.7.31-.1.6-.15.86-.15.66,0,1.14.16,1.44.48.29.33.45.7.47,1.11h-.75c-.02-.24-.11-.46-.28-.66-.17-.2-.44-.3-.81-.3-.47,0-.81.18-1.02.53-.21.35-.31.78-.3,1.3,0,.31.06.6.16.87.1.27.25.48.45.64.2.16.44.24.73.24.39,0,.67-.11.83-.33.16-.22.26-.47.29-.73h0Zm1.81,1.55v-4.57h1.9c.53,0,.93.09,1.21.27s.42.51.42,1c0,.26-.05.47-.15.64-.1.17-.2.28-.31.35-.1.06-.2.11-.29.14v.03c.25.07.42.2.5.4.08.2.12.45.13.76,0,.04,0,.1,0,.18s0,.15,0,.22c0,.13,0,.23.03.31.02.08.06.18.12.28h-.77c-.09-.15-.14-.44-.14-.85,0-.21-.02-.34-.03-.38-.02-.18-.08-.33-.18-.44-.1-.12-.3-.17-.59-.17h-1.09v1.84h-.75Zm.75-2.47h1.1c.58,0,.88-.25.88-.75,0-.3-.08-.48-.25-.57-.16-.08-.4-.13-.7-.13h-1.03v1.44h0Zm4.81-.21h2.25v.67h-2.25v1.35h2.57v.67h-3.33v-4.57h3.27v.67h-2.51v1.22h0Zm4.15,1.66l-.35,1.02h-.79l1.65-4.57h.79l1.67,4.57h-.8l-.36-1.02h-1.81Zm.21-.65h1.39l-.64-1.85-.05-.3h-.04l-.06.3-.6,1.85h0Zm4.44-2.23h-1.38v-.67h3.53v.67h-1.4v3.9h-.75v-3.9h0Zm3.03-.67h.75v4.57h-.75v-4.57h0Zm4.63,0h.81l-1.51,4.57h-.82l-1.51-4.57h.81l1.03,3.4.06.49h.05l.05-.49,1.03-3.4h0Zm2.42,1.89h2.25v.67h-2.25v1.35h2.57v.67h-3.33v-4.57h3.27v.67h-2.51v1.22h0Zm6.46,1.66l-.35,1.02h-.79l1.65-4.57h.79l1.67,4.57h-.8l-.36-1.02h-1.81Zm.21-.65h1.39l-.64-1.85-.05-.3h-.04l-.06.3-.6,1.85h0Zm5.9-2.05h-.06l-.04.42-.8,3.3h-.79l-1.19-4.57h.79l.75,3.32.05.35h.05l.05-.35.82-3.32h.71l.81,3.32.04.35h.06l.04-.35.75-3.32h.8l-1.2,4.57h-.79l-.81-3.3-.03-.42h0Zm4.24,2.71l-.35,1.02h-.79l1.65-4.57h.79l1.67,4.57h-.8l-.36-1.02h-1.81Zm.21-.65h1.39l-.64-1.85-.05-.3h-.04l-.06.3-.6,1.85h0Zm3.61,1.67v-4.57h1.9c.53,0,.93.09,1.21.27.28.18.42.51.42,1,0,.26-.05.47-.15.64-.1.17-.2.28-.31.35-.1.06-.2.11-.29.14v.03c.25.07.42.2.5.4.08.2.12.45.13.76,0,.04,0,.1,0,.18s0,.15,0,.22c0,.13,0,.23.03.31.02.08.06.18.12.28h-.77c-.09-.15-.14-.44-.14-.85,0-.21-.02-.34-.03-.38-.02-.18-.08-.33-.18-.44-.1-.12-.3-.17-.59-.17h-1.09v1.84h-.75Zm.75-2.47h1.1c.58,0,.88-.25.88-.75,0-.3-.08-.48-.25-.57-.16-.08-.4-.13-.7-.13h-1.03v1.44h0Zm4.06-2.1h1.71c.49,0,.97.14,1.42.42.45.28.68.9.68,1.86,0,.67-.12,1.18-.36,1.51-.24.34-.52.55-.84.64-.32.09-.68.14-1.08.14h-1.53v-4.57h0Zm.75.66v3.26h.77c.45,0,.81-.11,1.08-.34.27-.23.41-.66.41-1.28,0-.67-.14-1.11-.42-1.32-.29-.21-.6-.31-.94-.31h-.89Zm3.96,2.44h.77c0,.13.02.27.07.4.05.14.15.26.31.38.16.11.38.17.68.17.61.01.93-.22.96-.71,0-.24-.07-.41-.22-.51-.15-.11-.35-.19-.58-.24-.06-.01-.14-.03-.22-.05-.09-.02-.2-.04-.34-.07-.29-.06-.52-.14-.71-.22-.19-.08-.34-.21-.45-.39-.12-.17-.18-.4-.18-.68,0-.39.14-.71.41-.95.27-.24.7-.37,1.3-.37.61,0,1.03.13,1.26.41.23.28.36.59.38.93h-.73c0-.18-.08-.35-.21-.5-.13-.15-.37-.22-.72-.22-.27,0-.49.05-.66.16-.17.1-.26.27-.26.5,0,.16.04.29.13.38.09.09.19.15.31.19.12.04.31.09.58.15.09.02.19.04.31.07.12.03.21.05.28.06.29.07.55.2.77.37.22.18.34.46.35.84,0,.18-.01.35-.06.52-.05.17-.14.33-.28.48-.14.15-.32.27-.56.36-.24.09-.53.13-.89.13-.68-.02-1.15-.19-1.4-.52-.25-.33-.38-.69-.39-1.07h0Z"/>
    <polygon className="cls-1" points="57.47 60.59 94.75 113.5 20.19 113.5 57.47 60.59 57.47 60.59"/>
    <polygon className="cls-2" points="34.22 113.5 20.19 113.5 57.29 60.84 34.22 113.5 34.22 113.5"/>
    <path className="cls-2" d="m86.67,33.9h.05s0,0,0,0h2.11s.07,0,.07,0l.04.3h0s0,.01,0,.01l7.5,52.52-2.28.3-3.94-27.59h-4.6l-3.63,27.59-2.28-.3,6.91-52.52h0s0-.01,0-.01l.04-.3h0Zm3.23,23.24l-2.07-14.47-1.9,14.47h3.97Zm-17.38-23.24h5.15v2.3h-1.12s-4.03.01-4.03.01c-.62,0-1.13.48-1.13,1.06,0,10.56,0,21.1,0,31.66,0,.58.51,1.06,1.13,1.06h5.15v2.31h-5.15c-1.89,0-3.43-1.52-3.43-3.37v-17.31h0v-14.35c0-1.85,1.55-3.37,3.43-3.37h0Zm-16.16,0h2.3v23.29h-2.3v-23.29h0Zm-16.6,0h4.03c1.89,0,3.43,1.52,3.43,3.37v18.46c0,1.85-1.55,3.37-3.43,3.37h-3.42v13.2h-2.3v-38.4h1.68Zm.62,22.89h3.42c.62,0,1.13-.48,1.13-1.06v-18.46c0-.58-.51-1.06-1.13-1.06h-3.42v20.58h0Zm-16.12,28.1h8.01v2.3h-8.01s-2.3,0-2.3,0v-53.28h10.37v2.3h-8.07v20.62h7.59v2.3h-7.59v25.77h0Z"/>
    <path className="cls-2" d="m102.47,76.02l1.12,3.42h3.61l-2.92,2.11,1.12,3.42-2.92-2.11-2.92,2.11,1.12-3.42-2.92-2.11h3.61l1.12-3.42h0Zm6.06-18.53l1.12,3.42h3.61l-2.92,2.11,1.12,3.42-2.92-2.11-2.92,2.11,1.12-3.42-2.92-2.11h3.61l1.12-3.42h0Zm-1.34-19.59l1.12,3.42h3.61l-2.92,2.11,1.12,3.42-2.92-2.11-2.92,2.11,1.12-3.42-2.92-2.11h3.61l1.12-3.42h0Zm-8.45-17.53l1.12,3.42h3.61l-2.92,2.11,1.12,3.42-2.92-2.11-2.92,2.11,1.12-3.42-2.92-2.11h3.61l1.12-3.42h0Zm-14.53-13.35l1.12,3.42h3.61l-2.92,2.11,1.12,3.42-2.92-2.11-2.92,2.11,1.12-3.42-2.92-2.11h3.61l1.12-3.42h0ZM65.96,0l1.12,3.42h3.61l-2.92,2.11,1.12,3.42-2.92-2.11-2.92,2.11,1.12-3.42-2.92-2.11h3.61l1.12-3.42h0Zm-19.75.16l1.12,3.42h3.61l-2.92,2.11,1.12,3.42-2.92-2.11-2.92,2.11,1.12-3.42-2.92-2.11h3.61l1.12-3.42h0Zm-18.22,7.44l1.12,3.42h3.61l-2.92,2.11,1.12,3.42-2.92-2.11-2.92,2.11,1.12-3.42-2.92-2.11h3.61l1.12-3.42h0Zm-14.19,13.71l1.12,3.42h3.61l-2.92,2.11,1.12,3.42-2.92-2.11-2.92,2.11,1.12-3.42-2.92-2.11h3.61l1.12-3.42h0Zm-8.12,17.67l1.12,3.42h3.61l-2.92,2.11,1.12,3.42-2.92-2.11-2.92,2.11,1.12-3.42-2.92-2.11h3.61l1.12-3.42h0Zm-.96,19.51l1.12,3.42h3.61l-2.92,2.11,1.12,3.42-2.92-2.11-2.92,2.11,1.12-3.42-2.92-2.11h3.61l1.12-3.42h0Zm6.41,18.42l1.12,3.42h3.61l-2.92,2.11,1.12,3.42-2.92-2.11-2.92,2.11,1.12-3.42-2.92-2.11h3.61l1.12-3.42h0Z"/>
  </g>
</svg>