
<svg id="Layer_2" data-name="Layer 2" {...props} viewBox="0 0 62.74 7.88">
  
  <g id="Layer_1-2" data-name="Layer 1">
    <path class="cls-1" d="m5.79,2.6V.63H1.55c-.82,0-1.49.66-1.5,1.48h0v4.13h0s0,0,0,.01c0,.83.67,1.5,1.5,1.5h0s4.25,0,4.25,0v-1.97h-3.44v-.68h2.87v-1.81h-2.87v-.68h3.44Z"/>
    <path class="cls-2" d="m5.84,2.65V.58H1.55c-.84.01-1.54.69-1.55,1.53v4.13c0,.86.69,1.55,1.55,1.56,0,0-.02-.02-.03-.03.08.03.64.03,4.27.03h.05v-2.07h-3.44v-.59h2.87v-1.9h-2.87v-.59h3.44Zm-.66,2.4h-2.87v.77h3.44v1.89H1.55c-.81,0-1.46-.66-1.46-1.46V2.11c.01-.79.66-1.44,1.46-1.44h4.2v1.89h-3.44v.77h2.87v1.72Z"/>
    <path class="cls-1" d="m11.48,3.34s-.03,0-.04,0h0s-2.58,0-2.58,0v-.73h4.12V.63h-4.94c-.82.01-1.49.68-1.49,1.5v1.4c0,.83.67,1.51,1.5,1.51.01,0,.03,0,.04,0h0s2.58,0,2.58,0v.73h-4.12v1.98h4.94c.82-.01,1.49-.68,1.49-1.51v-1.4c0-.83-.67-1.51-1.51-1.51Z"/>
    <path class="cls-2" d="m13.03,2.65V.58h-4.99c-.84.02-1.53.71-1.53,1.55v1.41c0,.85.7,1.55,1.55,1.55.03-.01.05-.01.05-.01,0,0,2.44.01,2.53.01v.64h-4.13v2.07h4.99c.85,0,1.53-.71,1.53-1.55v-1.41c0-.85-.69-1.55-1.55-1.55h-2.57v-.64h4.12Zm-.09,3.6c0,.79-.64,1.45-1.44,1.46h-4.9v-1.89h4.12v-.82h-2.66c-.8,0-1.46-.66-1.46-1.46v-1.41c0-.79.65-1.45,1.45-1.46h4.89v1.89h-4.12v.82h2.66c.81,0,1.46.66,1.46,1.46v1.41Z"/>
    <path class="cls-1" d="m29.85,5.86V.63h-2.39v5.59h0s0,.02,0,.02c0,.83.67,1.51,1.5,1.51,0,0,0,0,0,0h0s3.39,0,3.39,0v-1.89h-2.52Z"/>
    <path class="cls-2" d="m29.89,5.82V.58h-2.48v5.64c0,.88.7,1.58,1.55,1.58h3.45v-1.98h-2.52Zm2.43,1.89h-3.35c-.81,0-1.47-.66-1.47-1.47V.67h2.3v5.23h2.52v1.81Z"/>
    <path class="cls-1" d="m36.74.63h2.31v4.66h0c-.03,1.37-1.39,2.47-3.06,2.47s-3.03-1.1-3.06-2.47h0V.63h2.31v4.39c0,.4.34.72.75.72s.74-.32.75-.72V.63Z"/>
    <path class="cls-2" d="m36.69.58v4.44c-.01.38-.32.67-.71.67s-.69-.3-.7-.68V.58h-2.4v4.7c.03,1.39,1.42,2.52,3.1,2.52s3.08-1.13,3.11-2.51V.58h-2.4Zm2.31,4.7c-.03,1.34-1.38,2.43-3.02,2.43s-2.98-1.09-3.01-2.42V.67h2.22v4.34c0,.43.36.77.79.77s.79-.33.8-.76V.67h2.22v4.61Z"/>
    <path class="cls-1" d="m46.18.66h-2.39v2.72c-.25-.44-.88-1.53-1.23-2.11-.44-.73-.99-.64-.99-.64h-.89c-.42,0-.75.33-.75.74,0,0,0,.01,0,.02h0v6.33h2.39v-2.82c.2.35.91,1.59,1.28,2.21.44.73,1.01.64,1.01.64h.82s0,0,0,0c.42,0,.75-.33.75-.74,0,0,0-.01,0-.02h0V.66Z"/>
    <path class="cls-2" d="m46.18.61h-2.39s-.04.02-.04.05v2.55c-.15-.25-1.15-1.97-1.15-1.97-.45-.75-1.01-.66-1.04-.66h-.88c-.44,0-.79.36-.79.79v6.35s.02.04.04.04h2.39s.05-.02.05-.04v-2.65c.14.25,1.2,2.07,1.2,2.07.45.75,1.02.66,1.05.66h.81c.44,0,.8-.36.8-.79V.66s-.02-.05-.05-.05Zm-.04,6.38c0,.4-.32.72-.71.72h-.82s-.55.08-.97-.62l-1.28-2.21s-.03-.02-.05-.02c-.02.01-.03.02-.03.04v2.78h-2.3V1.39c0-.4.31-.72.7-.72h.89s.54-.08.96.62l1.22,2.11s.03.02.05.02c.02-.01.03-.03.03-.05V.7h2.31v6.29Z"/>
    <path class="cls-1" d="m18.68,3.34s-.03,0-.04,0h0s-2.58,0-2.58,0v-.73h4.12V.63h-4.94c-.82.01-1.49.68-1.49,1.5v1.4c0,.83.67,1.51,1.5,1.51.02,0,.03,0,.04,0h0s2.58,0,2.58,0v.73h-4.12v1.98h4.94c.82-.01,1.49-.68,1.49-1.51v-1.4c0-.83-.67-1.51-1.51-1.51Z"/>
    <path class="cls-2" d="m20.23,2.65V.58h-4.99c-.85.02-1.53.71-1.53,1.55v1.41c0,.85.69,1.55,1.55,1.55.03-.01.04-.01.04-.01,0,0,2.45.01,2.53.01v.64h-4.12v2.07h4.99c.84,0,1.53-.71,1.53-1.55v-1.41c0-.85-.7-1.55-1.55-1.55h-2.58v-.64h4.13Zm-.09,3.6c0,.79-.65,1.45-1.45,1.46h-4.89v-1.89h4.12v-.82h-2.66c-.81,0-1.46-.66-1.46-1.46v-1.41c0-.79.64-1.45,1.44-1.46h4.9v1.89h-4.12v.82h2.66c.8,0,1.46.66,1.46,1.46v1.41Z"/>
    <path class="cls-1" d="m26.69,2.6V.63h-4.25c-.82,0-1.49.66-1.5,1.48h0v4.13h0s0,0,0,.01c0,.83.67,1.5,1.5,1.5h0s4.25,0,4.25,0v-1.97h-3.44v-.68h2.87v-1.81h-2.87v-.68h3.44Z"/>
    <path class="cls-2" d="m26.74,2.65V.58h-4.29c-.84.01-1.54.69-1.55,1.53v4.13c0,.86.7,1.55,1.55,1.56l-.03-.03c.09.03.64.03,4.27.03h.05v-2.07h-3.44v-.59h2.87v-1.9h-2.87v-.59h3.44Zm-.66,2.4h-2.87v.77h3.44v1.89h-4.2c-.81,0-1.46-.66-1.46-1.46V2.11c.01-.79.67-1.44,1.46-1.44h4.2v1.89h-3.44v.77h2.87v1.72Z"/>
    <path class="cls-1" d="m53.62,3.29h-2.4v1.67c0,.34-.46.79-.98.79s-.98-.39-.98-.87h0s0-1.49,0-1.49c0-.39.24-.74.62-.8h2.55V.63h-2.55c-1.64,0-2.97,1.17-2.97,2.61v1.79c0,1.5,1.42,2.71,3.17,2.71h.06c1.91,0,3.48-1.24,3.48-2.74v-1.72Z"/>
    <path class="cls-2" d="m53.66,3.25h-2.48v1.71c0,.33-.46.75-.94.75-.51,0-.93-.37-.93-.82v-1.5c0-.39.24-.7.58-.75h2.59V.58h-2.6c-1.66,0-3.01,1.2-3.01,2.66v1.8c0,1.52,1.44,2.75,3.22,2.75h.05c1.95,0,3.53-1.24,3.53-2.78v-1.76Zm-.09,1.76c0,1.49-1.54,2.7-3.44,2.7h-.05c-1.73,0-3.13-1.2-3.13-2.67v-1.8c0-1.41,1.31-2.57,2.92-2.57h2.51v1.88h-2.51c-.39.06-.66.4-.66.84v1.5c0,.5.46.91,1.02.91s1.03-.47,1.03-.84v-1.62h2.31v1.67Z"/>
    <path class="cls-1" d="m59.18,1.33c-.11-.39-.46-.68-.89-.7h-1.93c-.42.02-.77.31-.88.7l-1.86,6.42h2.4l.32-1.09h1.98l.33,1.09h2.39l-1.86-6.42Zm-2.39,3.66l.53-2.02.54,2.02h-1.07Z"/>
    <path class="cls-3" d="m59.18,1.33c-.11-.39-.46-.68-.89-.7h-1.93c-.42.02-.77.31-.88.7l-1.86,6.42h2.4l.32-1.09h1.98l.33,1.09h2.39l-1.86-6.42Zm-2.39,3.66l.53-2.02.54,2.02h-1.07Z"/>
    <path d="m61.7,2.1c-.16-.26-.29-.4-.39-.43.15-.01.26-.06.35-.15.08-.09.12-.2.12-.32,0-.1-.03-.19-.09-.27-.06-.08-.14-.13-.23-.15-.09-.03-.22-.04-.4-.04h-.58v1.68h.28v-.71h.16c.12,0,.21.04.28.11.06.08.13.19.22.34l.15.26h.33l-.2-.32Zm-.61-.62h-.33v-.51h.31c.16,0,.27.02.33.06.07.04.1.1.1.19s-.03.15-.1.19c-.07.05-.17.07-.31.07Zm.61.62c-.16-.26-.29-.4-.39-.43.15-.01.26-.06.35-.15.08-.09.12-.2.12-.32,0-.1-.03-.19-.09-.27-.06-.08-.14-.13-.23-.15-.09-.03-.22-.04-.4-.04h-.58v1.68h.28v-.71h.16c.12,0,.21.04.28.11.06.08.13.19.22.34l.15.26h.33l-.2-.32Zm-.61-.62h-.33v-.51h.31c.16,0,.27.02.33.06.07.04.1.1.1.19s-.03.15-.1.19c-.07.05-.17.07-.31.07Zm.61.62c-.16-.26-.29-.4-.39-.43.15-.01.26-.06.35-.15.08-.09.12-.2.12-.32,0-.1-.03-.19-.09-.27-.06-.08-.14-.13-.23-.15-.09-.03-.22-.04-.4-.04h-.58v1.68h.28v-.71h.16c.12,0,.21.04.28.11.06.08.13.19.22.34l.15.26h.33l-.2-.32Zm-.61-.62h-.33v-.51h.31c.16,0,.27.02.33.06.07.04.1.1.1.19s-.03.15-.1.19c-.07.05-.17.07-.31.07Zm.61.62c-.16-.26-.29-.4-.39-.43.15-.01.26-.06.35-.15.08-.09.12-.2.12-.32,0-.1-.03-.19-.09-.27-.06-.08-.14-.13-.23-.15-.09-.03-.22-.04-.4-.04h-.58v1.68h.28v-.71h.16c.12,0,.21.04.28.11.06.08.13.19.22.34l.15.26h.33l-.2-.32Zm-.61-.62h-.33v-.51h.31c.16,0,.27.02.33.06.07.04.1.1.1.19s-.03.15-.1.19c-.07.05-.17.07-.31.07Zm1.2-1.01c-.29-.32-.68-.47-1.16-.47-.21,0-.43.05-.68.17-.24.12-.44.3-.6.56-.16.25-.24.53-.24.83,0,.43.15.8.45,1.11.31.3.68.46,1.11.46s.81-.16,1.11-.46c.31-.31.46-.68.46-1.11s-.15-.78-.45-1.09Zm-.19,2.01c-.26.26-.57.39-.93.39s-.66-.13-.92-.39c-.26-.25-.38-.56-.38-.92s.12-.66.37-.91.58-.39.97-.39c.32,0,.61.12.87.37.27.25.4.56.4.93s-.13.67-.38.92Zm-.79-.81c.15-.01.26-.06.35-.15.08-.09.12-.2.12-.32,0-.1-.03-.19-.09-.27-.06-.08-.14-.13-.23-.15-.09-.03-.22-.04-.4-.04h-.58v1.68h.28v-.71h.16c.12,0,.21.04.28.11.06.08.13.19.22.34l.15.26h.33l-.2-.32c-.16-.26-.29-.4-.39-.43Zm-.22-.19h-.33v-.51h.31c.16,0,.27.02.33.06.07.04.1.1.1.19s-.03.15-.1.19c-.07.05-.17.07-.31.07Zm.61.62c-.16-.26-.29-.4-.39-.43.15-.01.26-.06.35-.15.08-.09.12-.2.12-.32,0-.1-.03-.19-.09-.27-.06-.08-.14-.13-.23-.15-.09-.03-.22-.04-.4-.04h-.58v1.68h.28v-.71h.16c.12,0,.21.04.28.11.06.08.13.19.22.34l.15.26h.33l-.2-.32Zm-.61-.62h-.33v-.51h.31c.16,0,.27.02.33.06.07.04.1.1.1.19s-.03.15-.1.19c-.07.05-.17.07-.31.07Zm.61.62c-.16-.26-.29-.4-.39-.43.15-.01.26-.06.35-.15.08-.09.12-.2.12-.32,0-.1-.03-.19-.09-.27-.06-.08-.14-.13-.23-.15-.09-.03-.22-.04-.4-.04h-.58v1.68h.28v-.71h.16c.12,0,.21.04.28.11.06.08.13.19.22.34l.15.26h.33l-.2-.32Zm-.61-.62h-.33v-.51h.31c.16,0,.27.02.33.06.07.04.1.1.1.19s-.03.15-.1.19c-.07.05-.17.07-.31.07Zm.61.62c-.16-.26-.29-.4-.39-.43.15-.01.26-.06.35-.15.08-.09.12-.2.12-.32,0-.1-.03-.19-.09-.27-.06-.08-.14-.13-.23-.15-.09-.03-.22-.04-.4-.04h-.58v1.68h.28v-.71h.16c.12,0,.21.04.28.11.06.08.13.19.22.34l.15.26h.33l-.2-.32Zm-.61-.62h-.33v-.51h.31c.16,0,.27.02.33.06.07.04.1.1.1.19s-.03.15-.1.19c-.07.05-.17.07-.31.07Zm.61.62c-.16-.26-.29-.4-.39-.43.15-.01.26-.06.35-.15.08-.09.12-.2.12-.32,0-.1-.03-.19-.09-.27-.06-.08-.14-.13-.23-.15-.09-.03-.22-.04-.4-.04h-.58v1.68h.28v-.71h.16c.12,0,.21.04.28.11.06.08.13.19.22.34l.15.26h.33l-.2-.32Zm-.61-.62h-.33v-.51h.31c.16,0,.27.02.33.06.07.04.1.1.1.19s-.03.15-.1.19c-.07.05-.17.07-.31.07Zm.61.62c-.16-.26-.29-.4-.39-.43.15-.01.26-.06.35-.15.08-.09.12-.2.12-.32,0-.1-.03-.19-.09-.27-.06-.08-.14-.13-.23-.15-.09-.03-.22-.04-.4-.04h-.58v1.68h.28v-.71h.16c.12,0,.21.04.28.11.06.08.13.19.22.34l.15.26h.33l-.2-.32Zm-.61-.62h-.33v-.51h.31c.16,0,.27.02.33.06.07.04.1.1.1.19s-.03.15-.1.19c-.07.05-.17.07-.31.07Zm.61.62c-.16-.26-.29-.4-.39-.43.15-.01.26-.06.35-.15.08-.09.12-.2.12-.32,0-.1-.03-.19-.09-.27-.06-.08-.14-.13-.23-.15-.09-.03-.22-.04-.4-.04h-.58v1.68h.28v-.71h.16c.12,0,.21.04.28.11.06.08.13.19.22.34l.15.26h.33l-.2-.32Zm-.61-.62h-.33v-.51h.31c.16,0,.27.02.33.06.07.04.1.1.1.19s-.03.15-.1.19c-.07.05-.17.07-.31.07Z"/>
  </g>
</svg>