<?xml version="1.0" encoding="UTF-8"?>
<svg id="Layer_2" data-name="Layer 2" xmlns="http://www.w3.org/2000/svg" viewBox="0 0 121.45 120.72">
  <defs>
    <style>
      .cls-1 {
        fill: #fefefe;
      }

      .cls-2 {
        fill: #1a519f;
      }
    </style>
  </defs>
  <g id="Layer_1-2" data-name="Layer 1">
    <g id="Layer_1-3" data-name="Layer_1">
      <path class="cls-2" d="m121.45,60.73c0,30.31-22.2,55.43-51.24,59.99v-42.44h14.15l2.69-17.55h-16.84v-11.39c0-4.8,2.35-9.49,9.89-9.49h7.66v-14.94s-6.95-1.19-13.59-1.19c-4.33,0-8.19.82-11.46,2.41-.65.32-1.28.67-1.88,1.05-1.21.76-2.32,1.65-3.32,2.65-4.01,4.01-6.27,9.91-6.27,17.52v13.38h-15.42v17.55h15.42v42.44C22.2,116.16,0,91.03,0,60.73,0,27.2,27.2,0,60.72,0s60.73,27.2,60.73,60.73Z"/>
      <path class="cls-1" d="m57.51,29.83c.99-1,2.1-1.89,3.32-2.65-1.21.76-2.32,1.65-3.32,2.65Z"/>
    </g>
  </g>
</svg>