
<svg id="Layer_2" data-name="Layer 2" {...props} viewBox="0 0 181.52 247.71">
  
  <g id="Layer_1-2" data-name="Layer 1">
    <g>
      <path class="cls-1" d="m100.72,150.64l-.93-1.76-1.24-2.56-.98-2.68-.73-3.01-.31-2.58v-2.51l.26-2.95.33-1.49-.39-1.26-.81-.65-1.64-1.21-1.15-.82-.22-1.58-.54-1.69-1.02-1.65-1.09-1.41-1.38-1.32-1.75-1.32-1.96-1.47-1.04-.5-1.04-.31-.87.14-.76.5-.33.82.22,1.49.76,3.32,1.32,4.38,1.09,2.62,1.47,3.35,1.04,1.96,1.6,2.9,1.91,3.23,1.51,2.08,1.26,1.69.05.92-.16.77-.71.28-2.12.11-3.71-.22-3.07-.39-2.69-.48-3.27-.93-1.65-.72-1.09-.48-1.24-.22-1.43.05-.76.33h-1.04l-2.47-.39-1.41-.48-1.55-.11-2.45-.05-1.86-.17h-1.7l-1.69.11-1.15.48-.82.22-.28.39.06.77.78,1.26,1.47,2.03.87.37,1.38.99,1.58.87,1.71.56,2.45.05,2.19-.22,1.86-.43,1.58-.5.67.33.31.65.56.16,1.36-.05,1.71.11.87.28,1.04-.28,3.38.43,2.31.33,3.77.82,2.75.82,2.71.92,2.4,1.1.93.67,2.47.11,1.32-.33.71-1.43.76-1.74-.22-1.41Zm-38.61-5.61l-.17.39-.29.35-.24.08-.5.02-.45-.13-.2-.17-.29-.37.02-.33.16-.24.58-.19.67-.13h.5s.24.13.24.13l.05.28-.07.31Zm26.61,3.4l-.2.26-.63.03-1.1-.18-.96-.17-1-.05-.97-.07-2.21-.56-1.75-.54-1.24-.41-.18-.35.05-.39.24-.09,1.64.52.72.29.77.17.92.12,1.55.17,1.34.2,1.26.09,1.02.22.58.15.16.22v.35Zm7.58-1.09l-.2.37-.37.3-.54.13-.29-.13-.1-.31.1-.35.5-.37.37-.09h.41l.13.16v.3Z"/>
      <path class="cls-1" d="m156.33,72.86l-.76-.35v1.17l-.62.69-1.09,1.64-.62.41-1.71,2.06-.69,1.09-.81,1.84-.89.15-.82-.48-.48-2.19.13-2.52.56-2.34,1.36-2.19,2.75-4.11,1.63-3.34.2-2.34-.26-.74-.48.48-.82,2.04-1.24,2.06-1.83,1.51-2.12,2.04-3.16,3.69-.61-.05-.21-.64-.07-1.5.2-2.8.97-3.14,1.71-3.49,2.27-2.8,2.8-2.4.26-.56-.33-.26-1.43.74-1.17.76-1.98,1.71-2.47,2.19-1.77,2.39-1.72,3.14-.95,2.54-.28,2.53-.13,3.42.82,3.56.81,3.08,1.58,4.85,1.02,5.81.62,4.44v2.4l-.26,2.53-.41,2.06-.77,2.33-2.88,3.62-2.93,2.67-3.77,2.12-3.62.21-.48-1.77-1.3-2.54-1.78-2.46-1.17-1.45-1.56-2.12-3.36-3.22-3.42-2.8-1.51-1.17-4.72-3.2-6.78-5.68-3.69-4.58-4.05-6.63-1.1-3.97.28-2.48.56-.48,1.43.96,2.27,1.09,1.84-.07,2.12.97,2.27,1.37,1.17.95,1.5,1.04,1.57.2.35-.69-.41-.07-.48.2-.76-.48-.67-1.02-.96-1.58-1.86-1.71-1.84-.69-1.02-.2.21-.54h1.43l1.65.54,2.4,1.58,1.09.48.41-.56-.69-.95-1.86-1.65-2.88-1.51-3.47-1.36-.69-.56.69-.48,1.56.77,2.88.48,3.08,1.23,1.64.81,2.88.41,2.06-.28,1.15-.54,1.58-.97.68-.67.08-.48-.64.05-.61.64-2.04.67-1.78.28-1.51-.2-1.45-1.15-1.3-1.52-1.56-1.15-2.34-.48-2.25-.76-.97-.62.08-.54.89.13h1.98l1.99-.13h2.04l1.09-.2.89.74,1.43.35h1.17l.54-.41-.94-.28-1.17-.76-1.22-1.15-1.99-1.04-1.63-.2-1.51-.2-.56-.33,1.09-.62h1.79l1.37.41,1.36.69,2.19.94,2.19.08,1.17-.56.33-.75-.89-.41-1.84-.08-1.58-.54-1.37-1.17-1.51-.77-1.99-.33-1.7-.61-.75-.97.13-.48,1.09.22,1.38.41.82.61,1.17.13.12-.61-1.22-.97-.35-.87,1.66.26,1.56.81,1.98.22.77,1.43,2.04,1.22.11-.02.45-.18.54-.33-.26-.41-.76.06-.69-.95-1.38-2.12-2.4-2.14-2.45-1.09-.69-.82-1.51-1.78-1.37-.75-.21-.69.62-.41,1.45.33,2.86.82,1.38.48.89,1.24,1.43.75h1.09l1.45.41,1.58-.28.61-.54-.89-.76-1.3-.33-1.51-.2-.89-.76-1.17-1.71-.28-1.09-1.51-1.36-1.64-1.03-1.85-1.15-2.04-1.91-.13-.56h.47l2.67,2.12,2.73,1.58,1.45,1.09,1.84,1.71,1.65.89.95.28.48-.76-.69-.26-1.43-1.3-.41-1.45-1.51-1.63-1.24-1.04-.61-1.56-2.12-3.16-2.88-2.53-.13-.82,1.02.13,1.45.74,2.33.97,2.4.13,1.78.83,1.91.33,1.63-.48-.12-.69-1.86-.41-1.63-.74-3.29-1.58-1.79-.96-.94-1.15.33-.41.48.33.74.28.96.07h1.58l1.36-.14,2.06-.13,1.58.61,1.64,1.17.69.2.07-.61-.56-.56-1.64-1.5-2.54-1.3-1.84-.2-3.49-.2-.82-.97-1.78-1.78-1.98-1.36-.75-.69.62-.48.94.41,1.71.89,1.93.69,2.6.62h2.25l1.86,2.06,1.51.89.54-.56-2.04-3.01-3.22-2.32-2.67-.64-2.27-2.38-1.98-1.17-2.73-.69,1.51-1.3,2.67-.89,1.98-.62.47-.61-.26-.48-1.09-.28-1.04-.21-7.72.15-1.38-1.52-1.56-1.02-1.99-.9-2.6-.41h-2.25l-.61-.82-2.12-2.27-2.54-2.32-1.56,2.6-.08.82.75.96.07.82-.54.48-1.73.12-3.14-.89-3.08-.67-1.43.06-2.34.48.28.81,1.3-.05.54.09-.02.73-.76.16-.99-.13-1.48.31-1.12.35-.89.06-.28.39.31.54.67.14.64-.18.72-.31.75-.04,1.58.07,1.21.37,1.43.35,2.1.95.18.45-.22.35-.98.35-.6.28-1.06.71-1.61.85-1.97,1.4-2.25,1.02-1.78,1.17-1.62.71-1.53.37-1.34.04-1.83.03-.71.19-.41.85-.31.93-.35.63-.89,1.34-.85,1.49-.58.73-.06.83.06,1.17v1.24l.76.69.67.35.8-.06,1.3-.35,1.47-.45,1.98-.8.8.04.18.5-.18.48-.67.35-2.02.77-1.53.45-.29.5-.06.54.5.45,1.06.12h.85l1.08-.03,1.17-.28,1.69-.89,1.11-.22.95-.18.73.24,1.05-.06,1.04.13.85.5,1.34.13,1.74.54.95.12,1.47-.26,1.87.13.82.31.45.76-.09.98-.22,1.21-.45,1.39-.64,1.75-.63,1.91-.67,1.74-.45,1.21-1.53,2.38-1.83,2.32-1.66,2.29-2.1,2.1-1.93,1.64-1.22,1.3-.65,2.14-.91,1.07-1.15.82-1.4,1.15-2.14,1.3-1.8.91-1.15,1.32-.82,1.06-.81.5-1.15.57-.75-.16-1.47-.67-1.63-1.06-2.4-1.05-2.69-1.41-1.4-1.06-1.73-1.39-1.89-1.56-2.04-.75-1.8-.31-2.3.48-1.64.91-1.41.98-.72,1.8-.5,1.4-.58,2.14-.65,1.3-.65,1.99-.09,2.38-.58,1.39-.65,2.21-.58,2.21-1.06,2.06-.58,2.04-.33,2.54-.91,2.14-.58,1.23-.07,1.22-.07,2.06v3.6l-.41,1.48.24,1.3-.09,2.14.74,1.71.58.41,1.06-.33.98-.89,1.41-1.71,1.22-1.96.48-1.64-.32-1.32-.41-1.64-.5-1.96-.48-2.06-.26-1.56v-1.47l.33-1.66.82-2.52.82-1.32.74-.67.58-.89,1.05-.09.5-.31.74-.67.82-.73.75-.98.31-1.15.26-.98.07-1.32.24-1.15.58-.73.58-.16.74.24,1.06.58,1.15,1.32,1.23,1.8,1.39,1.63,1.49,1.32,1.32,1.05,1.3.58.41.82-.41.41-1.4-.31-1.96-.17-2.55-.5-2.45-.48-2.95-.09-1.73.09-1.32.82-1.4,1.22-1.15,1.97-.9,2.23-.09,1.64.5,2.95,1.15,3.77.57,2.95.73,2.88.5,2.02.24,1.9.65,2.14.5,3.27.48,1.15,1.24.98,1.15,1.15,1.3,1.96.91,2.31,1.4,2.04,2.04,1.97,1.49.9.98.08.82-.24.5-1.15.56-.98.33-1.4v-3.2l-.41-.9s-.05-.14-.07-.29c0-.16,0-.32,0-.36l-.17-.58-.67-.98-1.22-1.22-2.29-.98-.83-.26-.15-1.4.07-.89-1.56-1.8-.98-2.31-.82-3.27-.67-3.03-1.13-2.38-.41-2.88.65-1.73,1.15-.65h.89l1.32,1.15,1.89,1.15,1.97.73,4.75,2.31,2.3,1.32v1.22l2.12,1.22,2.71.91h5.67l-.41,1.06-.24.58.73,1.37,1.4,2.06,2.23,2.21,2.69,2.95,2.31,2.04,4.31,3.3,3.49,1.88,2.61,1.39,3.37,2.29,3.1,2.21,2.68,2.26,2.78,3.77.13,1.58.63,1.64,1.71,1.22,1.56.61.97-.12.76-.75,1.09-1.17.26-1.59,1.3-2.25.28-1.72.2-1.91.13-1.51.43-.95.88-.43h.83l.06.63-.62.67-.54,1.45-.41.89v1.09l-.14,2.33-.33,1.17-1.02,1.77-1.38,2.27-1.38,2.47-.82,3.21-.41,3.37.41,3.75.54,2.19,1.3,2.88,1.65,3.42,1.3,2.68,1.78,2.8,2.12,2.6.41.89v.61l-.28.77-.74,1.22-1.17,1.63-2.4,3.08-2.39,2.6-2.19,2.4-.95.56-1.93.74-1.15,1.1-.62,1.24-1.38,1.71-1.56,1.7-1.91,1.99-1.17,2.04-.69,2.06-.41,1.7.07,1.38.82.88h3.01l1.3-.13,1.36-.82,1.78-.82.28-.69h.61l.95-.41.89-.84.48-3.27-.28-.69-.13-.69.48.13.54.15.56-.41.9-.56.94-1.22,1.17-1.65.61-1.51.13-1.22.77-.56,1.09-.62.89-.54.74-1.5,1.58-1.66,2.95-2.73,2.25-1.5,2.27-1.24.54-.54.2-.56.48-.61-.34-.82-.07-1.51-.29-1.41-.35-.82-.78-1.34-1.24-1.56-.62-1.17-.13-1.22v-1.66l.28-.94.74-2.55.77-1.22.81-.48,1.51-.94,1.78-1.53,2.4-2.04,1.64-1.7,1.65-1.92,1.71-1.93,1.22-2.17,1.02-1.86.96-2.12.69-2.34.21-2.17.12-1.66.56-.54.62-.14.54.35.48,1.15.13,1.58.22,1.51-.15,1.02-.13,1.58v3.36l.41,2.66.48.69.41-.06.2-.48-.28-1.09v-1.85l.56-1.57.26-2.27.28-1.58.35-.74h.41l.33.33.33,1.3.28,1.24-.13,1.97-.41,2.67-1.24,2.6-1.15,2.48-.69,2.12-.13,1.3.13,1.51.48,1.45h.9l.46-.63-.26-.69-.2-1.22.81-1.1.95-1.3.63-1.22,1.51-2.4,1.22-2.19.54-2.39.48-3.16v-3.14l-.61-2.19-1.23-1.71-.14-.82.56-.28.69.33.89,1.1,1.09,1.98.47,2.33.28,3.08.68,2.14.08.06.94,2.12.62.22.28-.56-.08-.33-.47-1.58-.07-1.58.07-2.32.41-2.6v-1.3l-.15-1.09-1.09-2.19-.95-1.58.33-.61,1.3-.28,1.78-.82,1.91-1.02,1.71-1.5,2.19-2.95,1.24-2.46,1.02-2.34.33-3.75.08-3.36-.54-4.16-.64-3.01-.54-3.08-.33-3.22.26-2.04.56-2.54,1.15-2.53,1.66-2.6.61-1.65.13-.82-.54-.74ZM63.27,23.33l-.54.54-.76.43-1.02.22-.35-.22-.13-.72.3-1.02.72-1,.6-.3.54.06.65.54.29.48-.29,1Zm2.67-.67l-.19.09-.37.02-.3-.15-.24-.28.03-.33.28-.45.22-.15h.29l.26.05.09.28.04.48-.13.43Zm3.31,3.05l-.28.13h-.35l-.2-.11-.11-.3.04-.37.2-.22.26-.02.28.07.13.2.09.33-.05.28Zm6.33-9.58l-.43.11-.52.13-.58.48-1.28.78-1.76.48-1.09.28-1.06.07-.54-.05.85-.73,1.58-.76,1.58-.71,1.51-.71.69-.33.52-.07.43.09.33.54-.22.39ZM27.76,93.11l-.56-.13-.28-.54.56-.28.48.05.13.48-.33.41Zm7.18-28.71l-.39,1.45-.5,1.63-.89,1.38-.48.13-.16-.37v-.72l.09-.99.35-1.85.78-1.36.41-.48.6-.16.22.33-.02,1.02Zm3.96-5.44l-.89.33-.85.09-.52-.2-.13-.37.15-.5.45-.32.93-.11.48-.03.33.09.29.28.02.32-.26.43Zm7.26,9.78l-.18.02-.45-.28-.63-.35-.54-.45-.5-.5-.22-.28-.05-.41.11-.2.18.02.31.05.35.31.41.37.65.39.39.46.24.35.02.32-.09.16Zm-12.2,9.75l-.33.46-.33.13-.22-.19.02-.67.56-.96.16-.28.28-.13.26.17v.56l-.16.39-.22.52Zm2.32,17.25l-.11.17h-.13l-.24-.2-.19-.35-.29-.65-.43-.85-.43-1.34-.22-1.26-.03-1.47.2-1.45.11-.17h.2l.2.19.21.87v.89s.37,1.13.37,1.13l.43,1.21.19,1.06.26,1.73-.09.5Zm8.29,15.8l.22-.05.54.11.24.26.06.31-.06.37-.31.24-.39-.07-.28-.26-.11-.58.09-.33Zm5.36-25.01l-.56.03-.72-.11-.5-.22-1.17-.72-1.15-.86-1.3-.78-.45-.33.6-.02.65.24,1.11.28,1.02.5,1.19.52.85.39.45.41.08.37-.1.3Zm6.19-16.01l-.78,2.19-.69,2.1-1.21,1.51-.61.47-.65.24-.37-.26-.04-.48.52-.56.54-.89.69-1.5.41-1.43.37-1.41.72-1.36.48-.69.41-.11.37.14.11.45-.28,1.6Zm29.79-43.44l.62-.78.71-.67.63-.43.47-.03.31.2v.58l-.16.63-.71.67-.84.52-.85.22-.41-.13-.05-.33.29-.45Zm-2.49-14.42l.6-.2.41-.18.52.18.16.37-.39.45-.54.2-.65.04-.24-.45.13-.41Zm-5.16,4.81l-.24-.65.35-.72.78-.65,1.24-.06.91.17.71.48.35.84.29.89-.06.78-.78.3h-.83l-1-.41-.9-.48-.83-.48Zm3.05,9.52l-1.06.24h-.94l-.17-.31.24-.33.28-.16,1.85-1.32,1.13-.71.69-.43h.24l.04.5-.46.37-.22.77-.58.89-1.04.5Zm-12.37,33.95l-.12-.2.03-.5.33-.37,1.17-.48,2.43-.76,2.44-.3h1.49l1.22.26,1.15.58.91.89.05.5-.11.35-.39.08-.6-.08-.91-.26-.86-.26-1.05-.11h-1.32l-1.11-.02-.98.09-1.09.19-.88.24-.85.19-.56.04-.39-.06Zm15.42,50.4l-1.24-.78-2.1-1.4-3.26-2.19-1.32-.89-1.4-1.1-1.52-1.39-1.11-.88-1.34-1.3-.87-.91-.54-.84-.2-1,.03-.93.35-.35.62.04.96.58,1.04,1,.76.93.82.82.8.98,1,1.09.95,1.06,3.12,2.71,1.73,1.54,1.54,1.4,1.24,1.17.24.39.17.28-.48-.04Zm.84-42.45l-.39.22-.95.02-.63-.15-.35-.47-.29-.37v-.6l.46-.59.7-.56.67-.09.62.16.18.33.08.74.09.79-.18.56Zm1.87-30.61l-.39,1.43-.87,2.29-1.17,1.93-1.3,2.41-2.08,2.91-1.58,1.66-1.09.43-.35-.02-.05-.28.33-.78,1.34-2.06,1.09-2.27.98-1.95,1.75-3.38,1.65-2.64.86-.81.65-.11.28.45-.04.8Zm3.81-9.92l-.2.5-.72.85-1.01.48-1,.41-1.04.02h-.65l-.22-.29.24-.43.58-.26,1-.48,1.15-.71.54-.39.82-.39.52.13v.56Zm5.44,31.33l-.37.11-.48-.04-.32-.31.08-.28.31-.22.48-.04.41.33.02.28-.13.16Zm.56-1.82h-.56l-.29-.16v-.41l.13-.28.29-.1h.39l.37.24.04.3-.37.41Zm1.02-2.8l-.37.18-.39.06-.41-.09-.13-.28v-.33l.33-.24.41-.07h.39l.24.2.05.31-.13.26Zm.52-2.36l-.5.14h-.56s-.29-.22-.29-.22l-.02-.22.09-.33.45-.2.48-.07.41.2.15.39-.2.31Zm1.21-3.31l-.28.37-.26.33-.52.11h-.52l-.45-.22-.04-.35.31-.33.24-.28.35-.12.58-.17h.45l.2.24-.07.43Zm.74-2.76l-.24.39-.43.07-.45.11h-.56s-.24-.29-.24-.29l.04-.41.18-.28.37-.26.58-.07.52.11.22.31v.32Zm.78-2.04l-.57.24-.45.14h-.56l-.22-.04-.28-.09-.15-.28.07-.35.37-.33.31-.17.35-.14.5-.02.48.16.2.39-.08.48Zm.08-3.18l-.2.33-.35.29-.52.19-.61.05-.5-.07-.13-.3.08-.24.2-.14.89-.46.43-.09.52.05.2.19v.2Zm-1.41-7.53l.17-.11.07-.33.07-.26.15-.19.28-.02.33.1.29.16.04.35-.04.58-.45.39-.58.28-.24-.04-.24-.09-.24-.29-.04-.33.09-.19h.31Zm-.31-2.38v-.28l.24-.24.39-.15.47-.02.28.1.07.24-.14.24-.24.26-.39.09h-.41l-.26-.24Zm.02,7.53l.33-.2.39-.1.39-.03.28.02.11.16v.28l-.13.29-.26.29-.65.28-.31-.04-.3-.09-.07-.31.05-.35.17-.2Zm1.67-2.29l-.09.24-.41.28-.56.21-.31-.08-.29-.16-.06-.3.04-.37.22-.22.31-.22.47-.1h.39s.26.06.26.06l.1.26-.06.41Zm.15-7.85l-.06.31-.2.28-.33.13-.31.07-.28.04-.37-.04-.1-.22.1-.29.22-.2.24-.13.41-.28.43.02.26.32Zm-.58-2.73l.22.13.04.31-.02.29-.35.31-.33.13-.22-.04-.17-.09v-.29l.02-.31.24-.26.22-.13.35-.05Zm-.43-1.55l-.1.33-.24.19-.22.13-.3.03-.24-.14-.05-.26.11-.22.22-.3.22-.11h.29s.24.13.24.13l.06.22Zm-3.05-6l.54-.03.76-.3.69-.14.58-.04.29.28-.41.61-.41.11-.69.24-.9.5-.85.45-.98.41-.33.04-.28-.1.04-.41-.15-.39v-.71l.31-.8.45-.48.28-.37.29-.37h.45l.32.31-.08.78.08.41Zm-.32-7.39l.21.13-.08.2-.29.35-.41.03-.48-.07-.28-.13-.2-.24.24-.2.35-.15h.54s.41.08.41.08Zm-2.56-2.88l.93-.09.5.17.39.2.02.33-.33.15-.52.03-.5-.03-.39-.08-.33-.24.24-.45Zm7.18,96.45l-.45.41-.41.47-.41.86-.13.59-.28.22-.54-.07-.26-.31.1-1.13.29-1.41.15-.78.35-.98.26-.29.39-.08h.52l.22.2.39.58.07,1.1-.28.65Zm-1.45-14.65l-1.22-1.17-2.04-2.04-1.85-2.34-1.64-2.66-1.3-3.29-.54-2.27.26-1.3.75-.2.76.35.48,1.36.41,1.99.74,2.06,1.93,3.01,2.6,3.82,3.01,3.9-2.34-1.22Zm2.51,41.17l-.52,1.45-.26.71-.48,1.09-.37,1.28-.11.37-.13.24h-.35l-.28-.84-.02-.95.21-1.3.47-1.78.76-1.1.69-.85.61-.07.17.56-.37,1.19Zm2.71,19.43l-.13.02-.24-.11-.45-.65-.67-1.09-.31-.73-.18-1v-.93l.03-.56.13-.17h.3l.31.13.41.48.3.84.2,1.11.02.89v.31s.18.43.18.43l.16.86-.07.16Zm-13.72,32.11l-.28.54-.33.5-.54.35-.52.11h-.22l-.24-.19-.07-.39.09-.48.28-.56.76-.76.58-.35.41-.02.21.17.05.39-.16.69Zm5.09-8.21l-.28.39-.35.21-.43.14-.31-.09-.19-.33.04-.33.31-.39.64-.39.47-.08.22.13.05.33-.16.41Zm11.36-11.33l-.82,1.21-1.09,1.28-1.24,1.21-1.32,1.38-1.23,1.11-.96.88-.54.35h-.35s-.17-.29-.17-.29l.08-.47,1.5-1.67,2.12-2.29,2.56-2.58.48-.52.72-.47.26.05.22.28-.22.54Zm4.74-3.66l.31-.11.41.02.18.09.02.21-.17.26-.37.33-.33.37h-.22l-.26-.15-.06-.31.11-.31.37-.39Zm13.71-37.38l-.08.62-.18.58-.11.52-.39.22-.35-.09-.19-.33-.11-1.17-.78-1.07-.07-.89.45-.56.47-.15.45.04.37.33.43.54.11.61v.82Zm23.12-21.23l-.04.87-.35,1.91-.48,1.64-.56,1.43-.84,1.56-.94,1.34-1.43,1.67-1.63,1.56-.84.2-.45-.2-.07-.6.35-.8.48-.87.88-1.15.94-1.28.89-1.4.88-1.43.67-1.4.39-1.43.33-1.64.08-1.82.07-1.63-.11-1.43-.17-1.65-.14-1.56-.09-.88.48-.48.31.16.24.76.48,1.51.39,1.8.28,1.73v3.49Z"/>
      <polygon class="cls-1" points="83.4 4.96 83.25 3.38 81 .65 80.31 .45 79.83 1.13 79.91 1.95 79.14 2.64 79.07 3.59 79.96 4.07 81.21 4.96 83.4 4.96 83.4 4.96 83.4 4.96"/>
      <line class="cls-2" x1="79.01" y1="3.18" x2="79.07" y2="3.05"/>
    </g>
    <g>
      <path class="cls-3" d="m0,247.19v-3.79h2.1c1.05,0,3.16-.21,3.16-2.74h0v-22.73h0c0-1.37-.11-4.63-2.74-4.63H.11l2.74-4.84h161.88v4.84H15.78c-1.37,0-3.16.32-3.16,3.05h0v7.16h0c.32.84,1.58,1.16,2.21,1.16s2.84-.11,2.84-3.58h3.16v11.68h-3.16c0-1.05-1.16-2.82-2.74-2.95-1.26-.11-2.32.32-2.32,2h0v8.84h0c0,.95,1.16,2.74,3.89,2.74h1.89v3.79H0Z"/>
      <path class="cls-3" d="m93.42,218.78c0,.84,1.05,1.68,1.68,1.89.74-.53,4.63-2.74,7.68-2.74s4.63,1.58,4.63,4h0v11.57h-7.37v-8.94h0c0-1.16-.32-2-1.37-2.1-1.05-.11-3.79,2.1-4.52,3.16h0v15.99h0c0,1.47,1.47,2.53,2.74,2.53h0v3.05h-12.84v-3.16h0c1.26,0,2.63-.42,2.74-2.31h0v-17.78h0c0-.53-.84-2-2.74-2h0v-3.16h9.37Z"/>
      <path class="cls-3" d="m181.52,218.78h-12.84v3.16h0c1.89,0,2.74,1.47,2.74,2h0v17.78h0c-.11,1.89-1.47,2.31-2.74,2.31h0v3.16h12.84v-3.05h0c-1.26,0-2.74-1.05-2.74-2.53h0v-17.47h0c0-1.26,1.37-2.21,2.74-2.21h0v-3.16h0Z"/>
      <path class="cls-3" d="m65.01,218.78c0,.84,1.05,1.68,1.68,1.89.74-.53,4.63-2.74,7.68-2.74s4.63,1.58,4.63,4h0v11.57h-7.37v-8.94h0c0-1.16-.32-2-1.37-2.1-1.05-.11-3.79,2.1-4.52,3.16h0v15.99h0c0,1.47,1.47,2.53,2.74,2.53h0v3.05h-12.84v-3.16h0c1.26,0,2.63-.42,2.74-2.31h0v-17.78h0c0-.53-.84-2-2.74-2h0v-3.16h9.37Z"/>
      <path class="cls-3" d="m150.37,218.78c0,.84,1.05,1.68,1.68,1.89.74-.53,4.63-2.74,7.68-2.74s4.63,1.58,4.63,4h0v11.57h-7.37v-8.94h0c0-1.16-.32-2-1.37-2.1-1.05-.11-3.79,2.1-4.52,3.16h0v15.99h0c0,1.47,1.47,2.53,2.74,2.53h0v3.05h-12.84v-3.16h0c1.26,0,2.63-.42,2.74-2.31h0v-17.78h0c0-.53-.84-2-2.74-2h0v-3.16h9.37Z"/>
      <path class="cls-3" d="m50.09,238.35h-7.37v2.84c0,.58-.05,1.48-.54,2.22-.48.76-1.4,1.36-3.14,1.36-3.47,0-4.53-2.32-4.53-4v-6c0-.52.42-1.26,1.16-1.26h14.42v-7.68c0-1.74-.19-2.87-.55-3.75-.37-.89-.92-1.51-1.66-2.25-1.48-1.47-6.63-1.89-8.95-1.89-5.89,0-7.78.84-9.47,2.21-1.68,1.36-2.31,4.2-2.31,6.31v11.89c0,1.58.16,2.92.57,4.12.4,1.2,1.06,2.25,2.06,3.25,2,1.99,8.1,1.99,9.36,1.99s5.48.11,8.53-2.1c3.05-2.21,2.42-7.26,2.42-7.26Zm-15.58-13.05c0-1.68.53-4.21,4.21-4.21s4,2.74,4,4.21v3.79c0,.63-.52,1.26-1.26,1.26h-5.68c-.64,0-1.27-.52-1.27-1.16v-3.89Z"/>
      <path class="cls-3" d="m135.37,243.43c-.52-.45-.89-1.08-.89-1.82v-15.78c0-1.21-.02-2.45-.37-3.61-.34-1.15-.99-2.23-2.26-3.13-2.53-1.79-6.63-1.68-8.21-1.68s-6.84,0-9.26,2.74c-2.42,2.73-2,5.36-2,6.41h6.9s.12-.89.35-1.9c.24-1.01.59-2.15,1.07-2.62.95-.95,3.47-2,5.42-.32.71.62.99,1.42.99,2.32v4.52c0,.42-.42,1.06-.94,1.06,0,0-9.58.21-11.26,1.47-1.69,1.26-3.16,2.1-3.16,6.73s1.16,6.42,2.53,7.37c1.36.95,2,2,8.2,2h14.74v-3.05c-.64,0-1.32-.26-1.85-.71Zm-8.26-.03c0,.26-.42.63-.73.63h-3.63c-1.29,0-2.12-.55-2.63-1.28-.5-.72-.69-1.62-.69-2.3v-4.05c0-3.75,3.72-3.84,5.49-3.84h.25c1.63,0,1.94,1.37,1.94,2.26v8.58Z"/>
      <path class="cls-3" d="m174.62,213.25c3.68,0,6.67-1.12,6.67-2.5s-2.99-2.5-6.67-2.5-6.67,1.12-6.67,2.5,2.99,2.5,6.67,2.5h0Z"/>
    </g>
  </g>
</svg>