<?xml version="1.0" encoding="UTF-8"?>
<svg id="Layer_2" data-name="Layer 2" xmlns="http://www.w3.org/2000/svg" viewBox="0 0 538.94 115.68">
  <defs>
    <style>
      .cls-1 {
        fill: #fff;
      }

      .cls-2 {
        fill: #2581c4;
      }

      .cls-2, .cls-3, .cls-4, .cls-5, .cls-6, .cls-7 {
        fill-rule: evenodd;
      }

      .cls-3 {
        fill: #1a519f;
      }

      .cls-4 {
        fill: #40c0f0;
      }

      .cls-5 {
        fill: #20377d;
      }

      .cls-6 {
        fill: #242b59;
      }

      .cls-7 {
        fill: #252766;
      }
    </style>
  </defs>
  <g id="Capa_1" data-name="Capa 1">
    <path class="cls-6" d="m514.64,105.45h-2.72l-2.42-6.35h-12.26l-2.42,6.35h-2.72l9.94-25.82h2.67l9.94,25.82Zm-11.3-22.65l-5.19,13.87h10.39l-5.19-13.87Zm21.99,23.05c-2.37,0-4.39-.55-6.05-1.66-1.66-1.11-2.87-2.67-3.53-4.64l2.22-1.31c.45,1.61,1.31,2.87,2.62,3.78,1.26.91,2.87,1.31,4.84,1.31s3.38-.4,4.49-1.26c1.06-.86,1.61-1.97,1.61-3.38s-.5-2.37-1.46-3.08c-.96-.71-2.57-1.41-4.89-2.12-2.72-.91-4.49-1.61-5.3-2.12-1.97-1.16-2.98-2.87-2.98-5.14s.76-3.93,2.27-5.14c1.51-1.26,3.38-1.92,5.65-1.92,1.97,0,3.68.5,5.14,1.51,1.51,1.01,2.62,2.37,3.38,4.03l-2.17,1.21c-1.16-2.87-3.28-4.29-6.35-4.29-1.61,0-2.93.4-3.88,1.21-.96.81-1.46,1.87-1.46,3.28,0,1.31.45,2.27,1.31,2.87.91.66,2.37,1.31,4.39,1.97l2.02.71c.4.1,1.01.35,1.76.66.86.3,1.41.61,1.71.81,1.31.81,2.12,1.51,2.47,2.17.61,1.01.91,2.07.91,3.33,0,2.17-.81,3.93-2.42,5.3-1.61,1.31-3.73,1.92-6.3,1.92"/>
    <path class="cls-4" d="m57.84,0c31.94,0,57.84,25.9,57.84,57.84s-25.9,57.84-57.84,57.84S0,89.79,0,57.84,25.9,0,57.84,0"/>
    <path class="cls-3" d="m147.3,0c18.02,0,34.12,8.24,44.73,21.17-8.37,10.2-3.4,22.66-3.72,35.21-.34,13.52-5.31,27.15,3.72,38.14-10.61,12.92-26.7,21.17-44.73,21.17s-34.25-8.31-44.85-21.32l.12.15V21.17l-.12.15C113.05,8.31,129.21,0,147.3,0"/>
    <path class="cls-7" d="m236.76,0c31.95,0,57.84,25.9,57.84,57.84s-25.9,57.84-57.84,57.84c-18.13,0-34.31-8.35-44.92-21.4l.19.24-1.52-37.51,1.52-35.84-.11.14C202.52,8.3,218.68,0,236.76,0"/>
    <polygon class="cls-1" points="252.54 74.73 246.93 74.73 227.53 50.38 227.53 74.73 220.98 74.73 220.98 39.08 226.61 39.08 246.04 63.43 246.04 39.08 252.54 39.08 252.54 74.73"/>
    <path class="cls-1" d="m140.57,63.08v11.65h-6.55v-35.65h15.04c1.8,0,3.45.3,4.97.9s2.82,1.44,3.92,2.51c1.1,1.06,1.96,2.33,2.57,3.81.62,1.48.92,3.08.92,4.8s-.3,3.37-.9,4.83c-.6,1.46-1.45,2.72-2.54,3.79-1.09,1.06-2.39,1.89-3.89,2.48-1.5.58-3.15.88-4.93.88h-8.6Zm8.26-5.64c.86,0,1.65-.16,2.4-.48.74-.32,1.39-.77,1.92-1.33.55-.57.98-1.24,1.29-2,.31-.77.47-1.6.47-2.49s-.16-1.73-.47-2.5c-.31-.77-.75-1.45-1.3-2.02-.55-.58-1.2-1.04-1.94-1.38-.74-.34-1.54-.51-2.4-.51h-8.23v12.72h8.26Z"/>
    <path class="cls-1" d="m58.23,55.99h18.19c.11,2.89-.27,5.53-1.13,7.92-.85,2.4-2.08,4.46-3.67,6.17-1.59,1.72-3.5,3.06-5.74,4.01-2.24.96-4.69,1.43-7.35,1.43-1.78,0-3.49-.22-5.14-.65-1.65-.44-3.18-1.07-4.6-1.88-1.42-.81-2.73-1.78-3.91-2.91-1.17-1.13-2.18-2.38-3.02-3.76-.82-1.39-1.48-2.87-1.93-4.46-.47-1.59-.7-3.26-.7-4.98s.23-3.39.7-4.98c.46-1.58,1.11-3.07,1.93-4.46.83-1.38,1.84-2.63,3.02-3.76,1.18-1.13,2.49-2.09,3.91-2.9,1.42-.8,2.95-1.42,4.6-1.86,1.65-.44,3.36-.65,5.14-.65,2.69,0,5.22.48,7.58,1.44,2.36.96,4.48,2.39,6.37,4.27l-4.3,4.33c-.54-.63-1.15-1.22-1.83-1.75-.68-.55-1.42-1.01-2.24-1.41-.81-.39-1.69-.7-2.62-.92-.94-.22-1.91-.32-2.95-.32-1.76,0-3.42.33-4.97.99-1.55.66-2.9,1.57-4.05,2.74-1.14,1.16-2.06,2.54-2.74,4.13-.67,1.58-1,3.3-1,5.14s.33,3.54,1,5.13c.68,1.57,1.59,2.95,2.74,4.12,1.15,1.15,2.51,2.07,4.05,2.74,1.55.66,3.2.99,4.97.99s3.18-.21,4.5-.65c1.31-.44,2.45-1.06,3.39-1.85.95-.8,1.71-1.75,2.28-2.87.57-1.12.97-2.35,1.18-3.72h-11.7l.03-4.8Z"/>
    <path class="cls-2" d="m102.57,21.17c8.19,9.98,13.11,22.75,13.11,36.67s-4.92,26.69-13.11,36.67c-8.19-9.98-13.11-22.75-13.11-36.67s4.92-26.69,13.11-36.67"/>
    <path class="cls-5" d="m192.03,21.17c8.19,9.98,13.11,22.75,13.11,36.67s-4.92,26.69-13.11,36.67c-8.19-9.98-13.11-22.75-13.11-36.67s4.92-26.69,13.11-36.67"/>
    <path class="cls-7" d="m472.13,92.12l9.91,13.27h-5.86l-9.21-12.09v12.09h-5.09v-25.8h5.09v11.39l8.84-11.39h5.86l-9.54,12.53Zm-22.56-7.78h-5.23v7.63h5.23c.96,0,1.78-.37,2.47-1.12.69-.75,1.03-1.65,1.03-2.71s-.34-1.95-1.03-2.69c-.69-.74-1.51-1.1-2.47-1.1Zm9.32,21.04h-5.49l-5.19-8.95h-3.87v8.95h-5.09v-25.8h10.32c2.38,0,4.41.84,6.08,2.51,1.67,1.67,2.51,3.68,2.51,6.04,0,1.6-.45,3.08-1.36,4.44-.91,1.36-2.11,2.39-3.61,3.08l5.71,9.73Zm-42.58-6.82c1.57,1.57,3.55,2.36,5.93,2.36s4.36-.79,5.93-2.36c1.6-1.6,2.4-3.62,2.4-6.08s-.8-4.48-2.4-6.08c-1.6-1.6-3.57-2.39-5.93-2.39s-4.34.8-5.93,2.39c-1.6,1.6-2.4,3.62-2.4,6.08s.8,4.48,2.4,6.08Zm15.44,3.46c-2.6,2.58-5.77,3.87-9.51,3.87s-6.9-1.29-9.51-3.87c-2.58-2.63-3.87-5.81-3.87-9.55s1.29-6.93,3.87-9.51c2.6-2.6,5.77-3.91,9.51-3.91s6.9,1.3,9.51,3.91c2.6,2.58,3.91,5.75,3.91,9.51s-1.3,6.94-3.91,9.55Zm-46.22,3.35h-5.79l-7.22-25.8h5.34l4.94,19.13,5.38-19.13h4.35l5.42,19.13,4.94-19.13h5.34l-7.22,25.8h-5.79l-4.87-17.03-4.83,17.03Zm-32.99-25.8h18.98v4.86h-6.96v20.93h-5.09v-20.93h-6.93v-4.86Zm-12.54,15.15v5.79h10.87v4.86h-15.96v-25.8h15.77v4.86h-10.69v5.49h9.77v4.79h-9.77Zm-14.97.59v-15.74h5.09v25.8h-3.87l-11.06-15.77v15.77h-5.09v-25.8h3.87l11.06,15.74Zm208.83-34.33v-15.74h5.08v25.8h-3.87l-11.06-15.77v15.77h-5.09v-25.8h3.87l11.06,15.74Zm-37.86,3.24c1.57,1.57,3.55,2.36,5.93,2.36s4.36-.79,5.93-2.36c1.6-1.6,2.4-3.62,2.4-6.08s-.8-4.48-2.4-6.08c-1.6-1.6-3.57-2.39-5.93-2.39s-4.34.8-5.93,2.39c-1.6,1.6-2.4,3.62-2.4,6.08s.8,4.48,2.4,6.08Zm15.44,3.46c-2.6,2.58-5.77,3.87-9.51,3.87s-6.9-1.29-9.51-3.87c-2.58-2.63-3.87-5.81-3.87-9.54s1.29-6.93,3.87-9.51c2.6-2.6,5.77-3.91,9.51-3.91s6.9,1.3,9.51,3.91c2.6,2.58,3.91,5.75,3.91,9.51s-1.3,6.94-3.91,9.54Zm-31.59-22.44h5.09v25.8h-5.09v-25.8Zm-21.83,0h18.98v4.87h-6.96v20.93h-5.09v-20.93h-6.93v-4.87Zm-12.21,26.31c-3.86,0-7.06-1.29-9.62-3.87-2.53-2.56-3.8-5.74-3.8-9.54s1.27-7.02,3.8-9.55c2.56-2.58,5.76-3.87,9.62-3.87,2.33,0,4.49.55,6.47,1.64,1.98,1.09,3.52,2.57,4.62,4.44l-4.39,2.54c-.64-1.15-1.55-2.06-2.73-2.71-1.18-.65-2.51-.98-3.98-.98-2.51,0-4.53.79-6.08,2.36-1.52,1.6-2.28,3.64-2.28,6.12s.76,4.48,2.28,6.08c1.55,1.57,3.57,2.36,6.08,2.36,1.47,0,2.81-.33,4-.98,1.19-.65,2.09-1.54,2.71-2.67l4.39,2.54c-1.11,1.87-2.65,3.35-4.62,4.44-1.98,1.09-4.14,1.64-6.47,1.64Zm-26.69,0c-2.88,0-5.23-.81-7.08-2.43-1.84-1.62-2.76-3.8-2.76-6.52v-17.36h5.05v16.95c0,1.38.4,2.45,1.2,3.22.8.77,2,1.16,3.59,1.16s2.79-.39,3.59-1.16c.8-.77,1.2-1.85,1.2-3.22v-16.95h5.09v17.36c0,2.73-.92,4.9-2.76,6.52-1.84,1.62-4.21,2.43-7.11,2.43Zm-30.64-5.38h5.16c2.24,0,4.05-.74,5.45-2.21,1.4-1.52,2.1-3.47,2.1-5.82s-.7-4.31-2.1-5.79c-1.4-1.5-3.22-2.25-5.45-2.25h-5.16v16.07Zm-5.09-20.93h10.24c3.54,0,6.49,1.24,8.85,3.72,2.38,2.46,3.57,5.52,3.57,9.18s-1.19,6.72-3.57,9.18c-2.36,2.48-5.31,3.72-8.85,3.72h-10.24v-25.8Zm-22.93,18.98c1.57,1.57,3.55,2.36,5.93,2.36s4.36-.79,5.93-2.36c1.6-1.6,2.4-3.62,2.4-6.08s-.8-4.48-2.4-6.08c-1.6-1.6-3.58-2.39-5.93-2.39s-4.34.8-5.93,2.39c-1.6,1.6-2.39,3.62-2.39,6.08s.8,4.48,2.39,6.08Zm15.44,3.46c-2.61,2.58-5.78,3.87-9.51,3.87s-6.9-1.29-9.51-3.87c-2.58-2.63-3.87-5.81-3.87-9.54s1.29-6.93,3.87-9.51c2.6-2.6,5.77-3.91,9.51-3.91s6.9,1.3,9.51,3.91c2.6,2.58,3.91,5.75,3.91,9.51s-1.3,6.94-3.91,9.54Zm-33.73-17.69h-5.23v7.63h5.23c.96,0,1.78-.37,2.47-1.12.69-.75,1.03-1.65,1.03-2.71s-.34-1.95-1.03-2.69c-.69-.74-1.51-1.11-2.47-1.11Zm9.33,21.04h-5.49l-5.2-8.96h-3.87v8.96h-5.09v-25.8h10.32c2.38,0,4.41.84,6.08,2.51,1.67,1.67,2.51,3.69,2.51,6.04,0,1.6-.45,3.08-1.36,4.44-.91,1.36-2.11,2.39-3.61,3.08l5.71,9.73Zm-36.31-13.23h4.53c1.08,0,1.98-.37,2.69-1.13.71-.75,1.07-1.68,1.07-2.78s-.36-2.06-1.07-2.8c-.71-.74-1.61-1.11-2.69-1.11h-4.53v7.81Zm-5.09-12.57h9.62c2.46,0,4.55.84,6.27,2.51,1.69,1.67,2.54,3.72,2.54,6.15s-.85,4.48-2.54,6.15c-1.72,1.67-3.81,2.51-6.27,2.51h-4.53v8.48h-5.09v-25.8Zm126.39-34.33v20.93h9.84v4.87h-14.93V10.93h5.09Zm-19.8,5.86l-3.54,10.54h7.07l-3.54-10.54Zm12.2,19.94h-5.53l-1.55-4.64h-10.28l-1.55,4.64h-5.49l9.03-25.8h6.3l9.06,25.8Zm-39.33-4.75h5.86c.86,0,1.57-.29,2.14-.87.57-.58.85-1.31.85-2.19s-.28-1.58-.85-2.16c-.56-.58-1.28-.87-2.14-.87h-5.86v6.08Zm5.09-16.29h-5.09v5.68h5.09c.79,0,1.44-.27,1.97-.81.53-.54.79-1.22.79-2.03s-.26-1.49-.77-2.03c-.52-.54-1.18-.81-1.99-.81Zm5.42,7.67c2.26,1.3,3.39,3.27,3.39,5.9,0,2.19-.77,3.98-2.32,5.38-1.55,1.4-3.45,2.1-5.71,2.1h-10.95V10.93h10.17c2.19,0,4.04.69,5.57,2.06,1.52,1.38,2.28,3.11,2.28,5.2s-.81,3.86-2.43,5.16Zm-38.52,6.56c1.57,1.57,3.55,2.36,5.93,2.36s4.36-.79,5.93-2.36c1.6-1.6,2.39-3.62,2.39-6.08s-.8-4.48-2.39-6.08c-1.6-1.6-3.58-2.4-5.93-2.4s-4.33.8-5.93,2.4c-1.6,1.6-2.4,3.62-2.4,6.08s.8,4.48,2.4,6.08Zm15.44,3.46c-2.6,2.58-5.77,3.87-9.51,3.87s-6.9-1.29-9.51-3.87c-2.58-2.63-3.87-5.81-3.87-9.55s1.29-6.93,3.87-9.51c2.6-2.6,5.77-3.91,9.51-3.91s6.91,1.3,9.51,3.91c2.6,2.58,3.91,5.75,3.91,9.51s-1.3,6.94-3.91,9.55Zm-32.85-22.44v20.93h9.84v4.87h-14.92V10.93h5.08Zm-21.64,11.94h12.94v1.99c0,3.68-1.18,6.67-3.54,8.95s-5.4,3.43-9.14,3.43c-3.98,0-7.28-1.29-9.91-3.87-2.61-2.61-3.91-5.77-3.91-9.51s1.29-6.94,3.87-9.55c2.6-2.6,5.82-3.91,9.66-3.91,2.38,0,4.57.54,6.56,1.62,1.99,1.08,3.55,2.54,4.68,4.38l-4.35,2.51c-.61-1.06-1.55-1.92-2.8-2.58-1.25-.66-2.63-1-4.13-1-2.48,0-4.51.81-6.08,2.43-1.57,1.57-2.36,3.6-2.36,6.08s.8,4.45,2.4,6.04c1.6,1.57,3.73,2.36,6.41,2.36,1.94,0,3.56-.43,4.86-1.29,1.3-.86,2.19-2.06,2.65-3.61h-7.81v-4.5Z"/>
  </g>
</svg>