<?xml version="1.0" encoding="UTF-8"?>
<svg id="Layer_2" data-name="Layer 2" xmlns="http://www.w3.org/2000/svg" viewBox="0 0 108.23 108.23">
  <defs>
    <style>
      .cls-1 {
        fill: #1a519f;
      }
    </style>
  </defs>
  <g id="Layer_1-2" data-name="Layer 1">
    <path class="cls-1" d="m54.11,9.75c14.45,0,16.16.05,21.87.32,5.28.24,8.14,1.12,10.05,1.86,2.53.98,4.33,2.15,6.22,4.05s3.07,3.7,4.05,6.22c.74,1.91,1.62,4.77,1.86,10.05.26,5.71.32,7.42.32,21.87s-.05,16.16-.32,21.87c-.24,5.28-1.12,8.14-1.86,10.05-.98,2.53-2.15,4.33-4.05,6.22-1.89,1.89-3.7,3.07-6.22,4.05-1.91.74-4.77,1.62-10.05,1.86-5.71.26-7.42.32-21.87.32s-16.16-.05-21.87-.32c-5.28-.24-8.14-1.12-10.05-1.86-2.53-.98-4.33-2.15-6.22-4.05-1.89-1.89-3.07-3.7-4.05-6.22-.74-1.91-1.62-4.77-1.86-10.05-.26-5.71-.32-7.42-.32-21.87s.05-16.16.32-21.87c.24-5.28,1.12-8.14,1.86-10.05.98-2.53,2.15-4.33,4.05-6.22,1.89-1.89,3.7-3.07,6.22-4.05,1.91-.74,4.77-1.62,10.05-1.86,5.71-.26,7.42-.32,21.87-.32m0-9.75c-14.7,0-16.54.06-22.31.33-5.76.26-9.69,1.18-13.14,2.52-3.56,1.38-6.58,3.23-9.58,6.24-3.01,3.01-4.86,6.03-6.24,9.58-1.34,3.44-2.25,7.38-2.52,13.14-.26,5.77-.33,7.61-.33,22.31s.06,16.54.33,22.31c.26,5.76,1.18,9.69,2.52,13.14,1.38,3.56,3.23,6.58,6.24,9.58,3.01,3.01,6.03,4.86,9.58,6.24,3.44,1.34,7.38,2.25,13.14,2.52,5.77.26,7.61.33,22.31.33s16.54-.06,22.31-.33c5.76-.26,9.69-1.18,13.14-2.52,3.56-1.38,6.58-3.23,9.58-6.24,3.01-3.01,4.86-6.03,6.24-9.58,1.34-3.44,2.25-7.38,2.52-13.14.26-5.77.33-7.61.33-22.31s-.06-16.54-.33-22.31c-.26-5.76-1.18-9.69-2.52-13.14-1.38-3.56-3.23-6.58-6.24-9.58-3.01-3.01-6.03-4.86-9.58-6.24-3.44-1.34-7.38-2.25-13.14-2.52-5.77-.26-7.61-.33-22.31-.33Zm0,26.33c-15.35,0-27.79,12.44-27.79,27.79s12.44,27.79,27.79,27.79,27.79-12.44,27.79-27.79-12.44-27.79-27.79-27.79Zm0,45.83c-9.96,0-18.04-8.08-18.04-18.04s8.08-18.04,18.04-18.04,18.04,8.08,18.04,18.04-8.08,18.04-18.04,18.04Zm35.38-46.92c0,3.59-2.91,6.49-6.49,6.49s-6.49-2.91-6.49-6.49,2.91-6.49,6.49-6.49,6.49,2.91,6.49,6.49Z"/>
  </g>
</svg>