
<svg id="Layer_2" data-name="Layer 2" viewBox="0 0 174.4 69.21" {...props}>
  
  <g id="Layer_1-2" data-name="Layer 1">
    <path class="cls-1" d="m8.12,0h17.77l-7.35,43.95s-2.27,10.82,5.48,10.82h20.44l-2.4,14.43h-20.44s-12.78.75-18.57-8.68C-2.03,52.23.77,42.35.77,42.35L8.12,0h0Z"/>
    <path class="cls-1" d="m25.22,27.25s4.68-5.91,18.57-6.95c14.29-1.07,22.84,7.48,22.71,14.69-.13,7.35-10.69,16.43-25.38,16.7-14.69.27-18.97-6.95-18.97-11.89s5.34-16.03,20.84-13.76c0,0-5.61,8.28-5.21,12.42.4,4.14,2.81,4.14,4.68,4.14s6.28-.8,6.81-8.95c.35-5.29-5.5-10.45-10.82-9.75-3.07.4-8.15,1.07-13.23,3.34h0Z"/>
    <path class="cls-1" d="m133.12,27.25s4.68-5.91,18.57-6.95c14.29-1.07,22.84,7.48,22.71,14.69-.13,7.35-10.69,16.43-25.38,16.7-14.69.27-18.97-6.95-18.97-11.89s5.34-16.03,20.84-13.76c0,0-5.61,8.28-5.21,12.42.4,4.14,2.8,4.14,4.68,4.14s6.28-.8,6.81-8.95c.35-5.29-5.5-10.45-10.82-9.75-3.07.4-8.15,1.07-13.23,3.34h0Z"/>
    <path class="cls-1" d="m74.24,7.88h17.9l-1.91,12.29h8.33l-2.14,15.36h-8.59l-1.96,10.69s-1.87,7.08,5.21,7.08h6.41l-2.94,15.1h-9.62s-9.62.94-14.69-8.82c-4.43-8.51-1.74-18.7-1.74-18.7l5.74-33h0Z"/>
    <path class="cls-1" d="m105.42,7.88h17.9l-1.91,12.29h8.33l-2.14,15.36h-8.59l-1.96,10.69s-1.87,7.08,5.21,7.08h24.72l-2.94,15.1h-27.93s-9.62.94-14.69-8.82c-4.43-8.51-1.74-18.7-1.74-18.7l5.74-33h0Z"/>
    <path class="cls-1" d="m162.38,11.08c.51-.06.91-.34.91-.97,0-.69-.41-1-1.24-1h-1.35v3.52h.54v-1.52h.61l.93,1.52h.6l-1-1.55Zm-1.14-.43v-1.09h.72c.38,0,.77.08.77.52,0,.54-.4.57-.85.57h-.64Z"/>
    <path class="cls-1" d="m162.38,11.08c.51-.06.91-.34.91-.97,0-.69-.41-1-1.24-1h-1.35v3.52h.54v-1.52h.61l.93,1.52h.6l-1-1.55Zm-1.14-.43v-1.09h.72c.38,0,.77.08.77.52,0,.54-.4.57-.85.57h-.64Z"/>
    <path class="cls-1" d="m162.38,11.08c.51-.06.91-.34.91-.97,0-.69-.41-1-1.24-1h-1.35v3.52h.54v-1.52h.61l.93,1.52h.6l-1-1.55Zm-1.14-.43v-1.09h.72c.38,0,.77.08.77.52,0,.54-.4.57-.85.57h-.64Z"/>
    <path class="cls-1" d="m162.38,11.08c.51-.06.91-.34.91-.97,0-.69-.41-1-1.24-1h-1.35v3.52h.54v-1.52h.61l.93,1.52h.6l-1-1.55Zm-1.14-.43v-1.09h.72c.38,0,.77.08.77.52,0,.54-.4.57-.85.57h-.64Z"/>
    <path class="cls-1" d="m162.38,11.08c.51-.06.91-.34.91-.97,0-.69-.41-1-1.24-1h-1.35v3.52h.54v-1.52h.61l.93,1.52h.6l-1-1.55Zm-1.14-.43v-1.09h.72c.38,0,.77.08.77.52,0,.54-.4.57-.85.57h-.64Z"/>
    <path class="cls-1" d="m162.38,11.08c.51-.06.91-.34.91-.97,0-.69-.41-1-1.24-1h-1.35v3.52h.54v-1.52h.61l.93,1.52h.6l-1-1.55Zm-1.14-.43v-1.09h.72c.38,0,.77.08.77.52,0,.54-.4.57-.85.57h-.64Z"/>
    <g>
      <path class="cls-1" d="m162.38,11.08c.51-.06.91-.34.91-.97,0-.69-.41-1-1.24-1h-1.35v3.52h.54v-1.52h.61l.93,1.52h.6l-1-1.55Zm-1.14-.43v-1.09h.72c.38,0,.77.08.77.52,0,.54-.4.57-.85.57h-.64Z"/>
      <path class="cls-1" d="m161.88,7.81c-1.68,0-3.1,1.3-3.1,3.05s1.42,3.07,3.1,3.07,3.09-1.3,3.09-3.07-1.42-3.05-3.09-3.05Zm0,5.61c-1.4,0-2.49-1.09-2.49-2.56s1.09-2.54,2.49-2.54,2.48,1.1,2.48,2.54-1.09,2.56-2.48,2.56Z"/>
      <path class="cls-1" d="m162.38,11.08c.51-.06.91-.34.91-.97,0-.69-.41-1-1.24-1h-1.35v3.52h.54v-1.52h.61l.93,1.52h.6l-1-1.55Zm-1.14-.43v-1.09h.72c.38,0,.77.08.77.52,0,.54-.4.57-.85.57h-.64Z"/>
    </g>
    <path class="cls-1" d="m162.38,11.08c.51-.06.91-.34.91-.97,0-.69-.41-1-1.24-1h-1.35v3.52h.54v-1.52h.61l.93,1.52h.6l-1-1.55Zm-1.14-.43v-1.09h.72c.38,0,.77.08.77.52,0,.54-.4.57-.85.57h-.64Z"/>
    <path class="cls-1" d="m162.38,11.08c.51-.06.91-.34.91-.97,0-.69-.41-1-1.24-1h-1.35v3.52h.54v-1.52h.61l.93,1.52h.6l-1-1.55Zm-1.14-.43v-1.09h.72c.38,0,.77.08.77.52,0,.54-.4.57-.85.57h-.64Z"/>
    <path class="cls-1" d="m162.38,11.08c.51-.06.91-.34.91-.97,0-.69-.41-1-1.24-1h-1.35v3.52h.54v-1.52h.61l.93,1.52h.6l-1-1.55Zm-1.14-.43v-1.09h.72c.38,0,.77.08.77.52,0,.54-.4.57-.85.57h-.64Z"/>
    <path class="cls-1" d="m162.38,11.08c.51-.06.91-.34.91-.97,0-.69-.41-1-1.24-1h-1.35v3.52h.54v-1.52h.61l.93,1.52h.6l-1-1.55Zm-1.14-.43v-1.09h.72c.38,0,.77.08.77.52,0,.54-.4.57-.85.57h-.64Z"/>
    <path class="cls-1" d="m162.38,11.08c.51-.06.91-.34.91-.97,0-.69-.41-1-1.24-1h-1.35v3.52h.54v-1.52h.61l.93,1.52h.6l-1-1.55Zm-1.14-.43v-1.09h.72c.38,0,.77.08.77.52,0,.54-.4.57-.85.57h-.64Z"/>
  </g>
</svg>