
<svg id="Layer_2" data-name="Layer 2" viewBox="0 0 296.26 81.05" {...props}>
  
  <g id="Layer_1-2" data-name="Layer 1">
    <g>
      <path d="m103.1.78h-11.49l-30.18,78.43h7.35l11.34-29.11s30.63,4.6,40.44,29.11h12.56L103.1.78Zm-20.84,42.89l12.56-33.4,17.31,48.26c-10.87-10.73-29.87-14.86-29.87-14.86Z"/>
      <path d="m266.54.78h-11.64l-30.18,78.43h7.36c5.05-11.49,14.24-20.84,25.58-25.89,4.59-2.15,9.5-3.37,14.55-3.83l11.8,29.72h12.25L266.54.78Zm-14.86,48.71c-3.98,2.3-7.65,4.9-11.02,7.96l17.92-47.02,11.79,33.24c-6.58.76-12.86,2.75-18.69,5.82Z"/>
      <path d="m181.06,50.1h20.68v22.82c-4.6,2.14-9.5,3.22-14.55,3.22-19.91,0-34.16-18.38-34.16-36,0-18.69,11.34-35.69,31.1-35.69,0,0,17.77-.77,23.9,16.85h2.3v-.46h0v-12.56s-1.07-.77-3.06-1.99c-1.23-.77-2.76-1.53-4.29-2.3C196.08,1.24,188.57-.14,181.06.01h0c-26.65,0-42.28,17.16-42.28,41.51s18.08,39.52,43.04,39.52c11.49,0,24.36-2.76,31.86-7.97v-29.11h-32.63v6.13h0Z"/>
      <path d="m32.17,33.71l-8.58-3.06c-9.8-3.98-12.87-8.88-12.87-14.86,0-6.74,6.28-11.03,15.62-11.03,1.23,0,2.3,0,3.52.31,0,0,12.1,1.07,16.08,15.01l.46,1.69h2.3V7.06C41.67,2.62,33.39.16,25.12.01,11.49.47,0,7.82,0,20.39c0,9.8,4.75,16.08,18.38,21.14l9.04,3.22c9.8,3.52,15.01,9.34,15.01,17.62,0,13.02-17.31,14.09-17.31,14.09-1.07,0-2.14,0-3.22-.31-5.36-.77-15.32-3.83-18.54-15.32h0l-.61-1.99H.31v15.01c7.51,4.44,15.93,6.89,24.66,7.05,16.08,0,28.34-8.12,28.34-23.44.31-14.71-11.64-20.22-21.14-23.74Z"/>
    </g>
  </g>
</svg>