<?xml version="1.0" encoding="UTF-8"?>
<svg id="Layer_2" data-name="Layer 2" xmlns="http://www.w3.org/2000/svg" viewBox="0 0 139.4 120.22">
  <defs>
    <style>
      .cls-1 {
        fill: #1a519f;
        fill-rule: evenodd;
      }
    </style>
  </defs>
  <g id="Layer_1-2" data-name="Layer 1">
    <path class="cls-1" d="m138.81,22.37c1.04-5.84,1.02-11.84-2.59-16.38-5.03-6.36-15.73-6.6-23.07-5.48-5.97.91-26.15,9.82-33.01,31.13,12.17-.92,18.54.88,17.37,14.27-.49,5.6-3.32,11.74-6.48,17.63-3.65,6.79-10.49,20.11-19.47,10.51-8.08-8.64-7.48-25.18-9.32-36.18-1.03-6.18-2.12-13.87-4.14-20.23-1.74-5.46-5.74-12.05-10.63-13.48-5.25-1.54-11.75.87-15.56,3.11C19.76,14.42,10.5,24.57,0,32.95v.78c2.08,1.99,2.64,5.25,5.71,5.7,7.23,1.06,14.12-6.74,18.93,1.38,2.92,4.96,3.84,10.4,5.71,15.75,2.5,7.12,4.43,14.88,6.48,23.07,3.46,13.87,7.72,34.6,19.71,39.68,6.12,2.6,15.31-.88,19.97-3.64,12.61-7.46,22.44-18.28,30.85-29.29,19.23-26.05,29.84-55.57,31.45-64h0Z"/>
  </g>
</svg>