
<svg id="Layer_2" data-name="Layer 2" viewBox="0 0 291.28 62.61">
  <g id="Layer_1-2" data-name="Layer 1">
    <g>
      <path d="m31.26,0C14,0,0,14,0,31.26s14,31.26,31.26,31.26,31.26-13.99,31.26-31.26S48.53,0,31.26,0Zm9.43,34.54c-.45,1.3-1.12,2.41-1.98,3.34s-1.89,1.65-3.1,2.17c-1.21.51-2.54.77-3.97.77-.97,0-1.89-.12-2.78-.35-.89-.24-1.72-.58-2.49-1.02-.76-.44-1.47-.96-2.11-1.57-.63-.61-1.18-1.29-1.63-2.03-.45-.76-.8-1.55-1.05-2.41-.25-.86-.37-1.77-.37-2.7s.12-1.83.37-2.69c.25-.85.6-1.66,1.05-2.41.45-.74.99-1.42,1.63-2.03.64-.61,1.35-1.13,2.11-1.57.77-.43,1.6-.76,2.49-1,.89-.24,1.81-.35,2.78-.35,1.45,0,2.82.26,4.09.77,1.28.52,2.42,1.3,3.45,2.31l-2.33,2.34c-.29-.34-.62-.66-.99-.94-.36-.3-.76-.55-1.21-.77-.44-.21-.91-.37-1.41-.49-.51-.12-1.04-.18-1.6-.18-.95,0-1.85.18-2.68.54-.84.36-1.57.85-2.19,1.48s-1.12,1.37-1.48,2.23c-.37.86-.54,1.79-.54,2.78s.17,1.91.54,2.77c.36.85.86,1.6,1.48,2.23.62.62,1.35,1.12,2.19,1.48.83.36,1.73.54,2.68.54s1.72-.12,2.43-.36c.71-.23,1.33-.57,1.84-1s.92-.94,1.23-1.55c.31-.6.52-1.27.64-2.01h-6.33l.02-2.59h0s9.84,0,9.84,0c.05,1.57-.15,2.99-.62,4.28Z"/>
      <path d="m83.3,26.88c.16.42.25.87.25,1.35s-.09.93-.25,1.35c-.17.41-.4.77-.7,1.08-.29.3-.64.54-1.04.72-.4.17-.83.26-1.3.26h-4.46v-6.87h4.45c.46,0,.89.09,1.29.27.4.19.76.44,1.05.75.3.31.54.67.71,1.09Z"/>
      <path d="m278.14,56.99h-1.47l-1.31-3.43h-6.63l-1.31,3.43h-1.47l5.37-13.95h1.44l5.37,13.95h0Zm-6.11-12.24l-2.8,7.5h5.62l-2.8-7.5h0Zm11.88,12.46c-1.28,0-2.37-.3-3.27-.9s-1.55-1.44-1.91-2.51l1.2-.71c.24.87.71,1.55,1.42,2.04.68.49,1.55.71,2.62.71s1.83-.22,2.43-.68c.57-.46.87-1.06.87-1.83s-.27-1.28-.79-1.66-1.39-.76-2.64-1.15c-1.47-.49-2.43-.87-2.86-1.15-1.06-.63-1.61-1.55-1.61-2.78s.41-2.12,1.23-2.78c.82-.68,1.83-1.04,3.05-1.04,1.06,0,1.99.27,2.78.82.82.55,1.42,1.28,1.83,2.18l-1.17.65c-.63-1.55-1.77-2.32-3.43-2.32-.87,0-1.58.22-2.1.65-.52.44-.79,1.01-.79,1.77,0,.71.24,1.23.71,1.55.49.36,1.28.71,2.37,1.06l1.09.38c.22.05.55.19.95.36.46.16.76.33.92.44.71.44,1.15.82,1.33,1.17.33.55.49,1.12.49,1.8,0,1.17-.44,2.12-1.31,2.86-.87.71-2.02,1.04-3.4,1.04"/>
      <path d="m255.17,49.79l5.36,7.17h-3.17l-4.98-6.53v6.53h-2.75v-13.94h2.75v6.16l4.78-6.16h3.17s-5.16,6.77-5.16,6.77Zm-12.19-4.2h-2.83v4.12h2.83c.52,0,.96-.2,1.33-.61s.56-.89.56-1.46-.18-1.05-.56-1.45c-.37-.4-.82-.59-1.33-.59h0Zm5.04,11.37h-2.97l-2.8-4.84h-2.09v4.84h-2.75v-13.94h5.58c1.29,0,2.38.45,3.29,1.36.9.9,1.36,1.99,1.36,3.26,0,.86-.24,1.66-.74,2.4-.49.74-1.14,1.29-1.95,1.66l3.09,5.26h0Zm-23.01-3.69c.85.85,1.92,1.28,3.2,1.28s2.36-.43,3.2-1.28c.86-.86,1.3-1.96,1.3-3.29s-.43-2.42-1.3-3.29-1.93-1.29-3.2-1.29-2.35.43-3.2,1.29c-.86.86-1.3,1.96-1.3,3.29s.43,2.42,1.3,3.29Zm8.34,1.87c-1.41,1.39-3.12,2.09-5.14,2.09s-3.73-.7-5.14-2.09c-1.39-1.42-2.09-3.14-2.09-5.16s.7-3.75,2.09-5.14c1.41-1.41,3.12-2.11,5.14-2.11s3.73.7,5.14,2.11c1.41,1.39,2.11,3.11,2.11,5.14s-.7,3.75-2.11,5.16Zm-24.98,1.81h-3.13l-3.9-13.94h2.89l2.67,10.34,2.91-10.34h2.35l2.93,10.34,2.67-10.34h2.89l-3.9,13.94h-3.13l-2.63-9.2-2.61,9.2h0Zm-17.83-13.94h10.26v2.63h-3.76v11.31h-2.75v-11.31h-3.75v-2.63h0Zm-6.78,8.19v3.13h5.87v2.63h-8.63v-13.94h8.52v2.63h-5.78v2.97h5.28v2.59h-5.28,0Zm-8.09.32v-8.51h2.75v13.94h-2.09l-5.98-8.52v8.52h-2.75v-13.94h2.09l5.98,8.51Zm112.86-18.55v-8.51h2.75v13.94h-2.09l-5.98-8.52v8.52h-2.75v-13.94h2.09l5.98,8.51h0Zm-20.46,1.75c.85.85,1.92,1.28,3.2,1.28s2.36-.43,3.2-1.28c.86-.86,1.3-1.96,1.3-3.29s-.43-2.42-1.3-3.29c-.86-.86-1.93-1.29-3.2-1.29s-2.35.43-3.2,1.29c-.86.86-1.3,1.96-1.3,3.29s.43,2.42,1.3,3.29Zm8.34,1.87c-1.41,1.39-3.12,2.09-5.14,2.09s-3.73-.7-5.14-2.09c-1.39-1.42-2.09-3.14-2.09-5.16s.7-3.75,2.09-5.14c1.41-1.41,3.12-2.11,5.14-2.11s3.73.7,5.14,2.11c1.41,1.39,2.11,3.11,2.11,5.14s-.7,3.75-2.11,5.16h0Zm-17.07-12.13h2.75v13.94h-2.75s0-13.94,0-13.94Zm-11.8,0h10.26v2.63h-3.76v11.31h-2.75v-11.31h-3.75v-2.63h0Zm-6.6,14.22c-2.09,0-3.82-.7-5.2-2.09-1.37-1.38-2.05-3.1-2.05-5.16s.69-3.79,2.05-5.16c1.38-1.39,3.11-2.09,5.2-2.09,1.26,0,2.43.3,3.5.89s1.9,1.39,2.5,2.4l-2.37,1.37c-.35-.62-.84-1.11-1.48-1.46-.64-.35-1.36-.53-2.15-.53-1.36,0-2.45.43-3.29,1.28-.82.86-1.23,1.97-1.23,3.31s.41,2.42,1.23,3.29c.84.85,1.93,1.28,3.29,1.28.79,0,1.52-.18,2.16-.53s1.13-.83,1.46-1.44l2.37,1.37c-.6,1.01-1.43,1.81-2.5,2.4-1.07.59-2.24.89-3.5.89h0Zm-14.42,0c-1.56,0-2.83-.44-3.83-1.31-.99-.88-1.49-2.05-1.49-3.52v-9.38h2.73v9.16c0,.75.22,1.32.65,1.74.43.42,1.08.63,1.94.63s1.51-.21,1.94-.63c.43-.42.65-1,.65-1.74v-9.16h2.75v9.38c0,1.48-.5,2.65-1.49,3.52s-2.28,1.31-3.84,1.31h0Zm-16.56-2.91h2.79c1.21,0,2.19-.4,2.95-1.19.76-.82,1.13-1.88,1.13-3.15s-.38-2.33-1.13-3.13c-.76-.81-1.74-1.22-2.95-1.22h-2.79v8.69Zm-2.75-11.31h5.53c1.91,0,3.51.67,4.78,2.01,1.29,1.33,1.93,2.98,1.93,4.96s-.64,3.63-1.93,4.96c-1.28,1.34-2.87,2.01-4.78,2.01h-5.53v-13.94Zm-12.39,10.26c.85.85,1.92,1.28,3.2,1.28s2.36-.43,3.2-1.28c.86-.86,1.3-1.96,1.3-3.29s-.43-2.42-1.3-3.29c-.86-.86-1.93-1.29-3.2-1.29s-2.35.43-3.2,1.29c-.86.86-1.29,1.96-1.29,3.29s.43,2.42,1.29,3.29Zm8.34,1.87c-1.41,1.39-3.12,2.09-5.14,2.09s-3.73-.7-5.14-2.09c-1.39-1.42-2.09-3.14-2.09-5.16s.7-3.75,2.09-5.14c1.41-1.41,3.12-2.11,5.14-2.11s3.73.7,5.14,2.11c1.41,1.39,2.11,3.11,2.11,5.14s-.7,3.75-2.11,5.16Zm-18.23-9.56h-2.83v4.12h2.83c.52,0,.96-.2,1.33-.61s.56-.89.56-1.46-.18-1.05-.56-1.45c-.37-.4-.82-.6-1.33-.6Zm5.04,11.37h-2.97l-2.81-4.84h-2.09v4.84h-2.75v-13.94h5.58c1.29,0,2.38.45,3.29,1.36.9.9,1.36,1.99,1.36,3.26,0,.86-.24,1.66-.74,2.4-.49.74-1.14,1.29-1.95,1.66l3.09,5.26h0Zm-19.62-7.15h2.45c.58,0,1.07-.2,1.45-.61.38-.41.58-.91.58-1.5s-.19-1.11-.58-1.51c-.38-.4-.87-.6-1.45-.6h-2.45v4.22h0Zm-2.75-6.79h5.2c1.33,0,2.46.45,3.39,1.36.91.9,1.37,2.01,1.37,3.32s-.46,2.42-1.37,3.32c-.93.9-2.06,1.36-3.39,1.36h-2.45v4.58h-2.75v-13.94ZM235.91,5.89v11.31h5.32v2.63h-8.07V5.91h2.75v-.02Zm-10.7,3.17l-1.91,5.7h3.82l-1.91-5.7h0Zm6.59,10.78h-2.99l-.84-2.51h-5.56l-.84,2.51h-2.97l4.88-13.94h3.4l4.9,13.94h0Zm-21.26-2.57h3.17c.46,0,.85-.16,1.16-.47s.46-.71.46-1.18-.15-.85-.46-1.17c-.3-.31-.69-.47-1.16-.47h-3.17v3.29h0Zm2.75-8.8h-2.75v3.07h2.75c.43,0,.78-.15,1.06-.44.29-.29.43-.66.43-1.1s-.14-.81-.42-1.1c-.28-.29-.64-.44-1.08-.44h0Zm2.93,4.15c1.22.7,1.83,1.77,1.83,3.19,0,1.18-.42,2.15-1.25,2.91-.84.76-1.86,1.13-3.09,1.13h-5.92V5.91h5.5c1.18,0,2.18.37,3.01,1.11.82.75,1.23,1.68,1.23,2.81s-.44,2.09-1.31,2.79h0Zm-20.82,3.55c.85.85,1.92,1.28,3.2,1.28s2.36-.43,3.2-1.28c.86-.86,1.29-1.96,1.29-3.29s-.43-2.42-1.29-3.29c-.86-.86-1.93-1.3-3.2-1.3s-2.34.43-3.2,1.3-1.3,1.96-1.3,3.29.43,2.42,1.3,3.29Zm8.34,1.87c-1.41,1.39-3.12,2.09-5.14,2.09s-3.73-.7-5.14-2.09c-1.39-1.42-2.09-3.14-2.09-5.16s.7-3.75,2.09-5.14c1.41-1.41,3.12-2.11,5.14-2.11s3.73.7,5.14,2.11c1.41,1.39,2.11,3.11,2.11,5.14s-.7,3.75-2.11,5.16Zm-17.75-12.13v11.31h5.32v2.63h-8.06V5.91h2.75Zm-11.7,6.45h6.99v1.08c0,1.99-.64,3.6-1.91,4.84s-2.92,1.85-4.94,1.85c-2.15,0-3.93-.7-5.36-2.09-1.41-1.41-2.11-3.12-2.11-5.14s.7-3.75,2.09-5.16c1.41-1.41,3.15-2.11,5.22-2.11,1.29,0,2.47.29,3.55.88s1.92,1.37,2.53,2.37l-2.35,1.36c-.33-.57-.84-1.04-1.51-1.39s-1.42-.54-2.23-.54c-1.34,0-2.44.44-3.29,1.31-.85.85-1.28,1.95-1.28,3.29s.43,2.41,1.3,3.26c.86.85,2.02,1.28,3.46,1.28,1.05,0,1.92-.23,2.63-.7s1.18-1.11,1.43-1.95h-4.22v-2.43.02Z"/>
      <path d="m79.67.09c-17.26,0-31.26,13.99-31.26,31.26s14,31.26,31.26,31.26,31.26-14,31.26-31.26S96.93.09,79.67.09Zm6.92,30.73c-.32.79-.78,1.47-1.37,2.05-.59.57-1.29,1.02-2.1,1.34-.81.31-1.71.47-2.67.47h-4.65v6.3h-3.54v-19.27h8.13c.97,0,1.86.17,2.68.49.83.32,1.53.78,2.12,1.36.6.57,1.06,1.26,1.39,2.06.34.8.5,1.66.5,2.59s-.16,1.82-.49,2.61Z"/>
      <path d="m128.06.04c-17.26,0-31.26,13.99-31.26,31.26s14,31.26,31.26,31.26,31.26-14,31.26-31.26S145.32.04,128.06.04Zm9.68,41.1h-3.04l-10.48-13.16v13.16h-3.54v-19.27h3.04l10.5,13.16v-13.16h3.52v19.27Z"/>
    </g>
  </g>
</svg>