<?xml version="1.0" encoding="UTF-8"?>
<svg id="Layer_2" xmlns="http://www.w3.org/2000/svg" viewBox="0 0 359.13 136.32">
  <defs>
    <style>
      .cls-1 {
        fill: #fff;
      }

      .cls-1, .cls-2, .cls-3, .cls-4, .cls-5, .cls-6 {
        fill-rule: evenodd;
      }

      .cls-2 {
        fill: #4d4d4f;
      }

      .cls-3 {
        fill: #6d6e70;
      }

      .cls-4 {
        fill: #333133;
      }

      .cls-5 {
        fill: #5c5d60;
      }

      .cls-6 {
        fill: #8a8c8e;
      }
    </style>
  </defs>
  <g id="Capa_1">
    <path class="cls-6" d="M66.33,55.31v6.33h2v-6.33h-2ZM66.31,67.03v6.15l2.02-1.06v-5.09h-2.02ZM68.28,0C30.57,0,0,30.52,0,68.16c0,12.7,3.49,24.58,9.54,34.76l50.59-26.5.41-.22v-26.27h7.79V0h-.05ZM50.14,74.06c-2.61,2.52-5.88,3.54-9.47,3.54s-6.55-.92-9.16-3.01c-.38-.3-.74-.63-1.1-.98-2.73-2.68-4.05-5.98-4.05-9.78s1.3-7.23,4.01-9.94c2.75-2.75,6.12-4.03,10-4.03,2.4,0,4.68.53,6.79,1.67,1.4.76,2.64,1.71,3.66,2.87.46.52.94,1.15,1.28,1.76.01.02.01.05.02.07l-4.64,2.84-.1-.15c-.65-1.13-1.78-2.06-2.93-2.67-1.28-.67-2.67-.98-4.12-.98-2.35,0-4.4.73-6.07,2.41-1.65,1.66-2.35,3.83-2.35,6.15s.72,4.35,2.39,5.99c.57.56,1.19,1,1.85,1.34,1.38.72,2.94,1,4.56,1,3.02,0,6.3-1.26,7.44-4.24l.1-.26h-6.54v-4.9h12.24c.11,4.35-.29,7.91-3.81,11.3Z"/>
    <path class="cls-4" d="M268.46,41.86v-18.52h-4.51v22.83h13.21v-4.31h-8.7ZM253.71,23.34h-5.58l-7.99,22.83h4.86l1.37-4.11h9.1l1.37,4.11h4.89l-8.02-22.83ZM247.8,37.85l3.13-9.33,3.13,9.33h-6.26ZM236.22,34.33c1.43-1.16,2.15-2.68,2.15-4.57s-.68-3.38-2.02-4.6c-1.35-1.22-2.99-1.82-4.93-1.82h-9v22.83h9.69c2,0,3.68-.62,5.05-1.86s2.06-2.83,2.06-4.77c0-2.32-1-4.06-3-5.21ZM226.92,27.54h4.5c.72,0,1.31.24,1.76.72.46.48.69,1.08.69,1.79s-.24,1.32-.7,1.8c-.47.48-1.05.72-1.75.72h-4.5v-5.03ZM234,41.19c-.5.51-1.13.77-1.89.77h-5.19v-5.38h5.19c.76,0,1.39.25,1.89.76s.75,1.15.75,1.91-.25,1.43-.75,1.94ZM215.79,26.34c-2.3-2.31-5.11-3.46-8.41-3.46s-6.11,1.15-8.42,3.46c-2.28,2.28-3.42,5.08-3.42,8.41s1.14,6.12,3.42,8.45c2.31,2.28,5.11,3.42,8.42,3.42s6.11-1.14,8.41-3.42c2.3-2.31,3.46-5.12,3.46-8.45s-1.16-6.13-3.46-8.41ZM212.63,40.13c-1.39,1.39-3.15,2.09-5.25,2.09s-3.86-.7-5.25-2.09c-1.42-1.41-2.12-3.21-2.12-5.38s.7-3.97,2.12-5.38c1.41-1.41,3.16-2.12,5.25-2.12s3.83.71,5.25,2.12c1.41,1.41,2.12,3.21,2.12,5.38s-.71,3.97-2.12,5.38ZM186.72,41.86v-18.52h-4.5v22.83h13.21v-4.31h-8.71ZM167.57,33.9v3.98h6.91c-.41,1.37-1.19,2.44-2.35,3.2-1.15.76-2.58,1.14-4.3,1.14-2.37,0-4.26-.7-5.68-2.09-1.41-1.41-2.12-3.19-2.12-5.35s.7-3.99,2.09-5.38c1.39-1.43,3.19-2.15,5.38-2.15,1.33,0,2.55.29,3.66.88,1.1.59,1.93,1.35,2.47,2.28l3.85-2.21c-1-1.64-2.38-2.93-4.14-3.89-1.76-.95-3.7-1.43-5.8-1.43-3.4,0-6.24,1.15-8.55,3.46-2.28,2.3-3.42,5.12-3.42,8.44s1.15,6.11,3.45,8.42c2.33,2.28,5.25,3.42,8.78,3.42,3.3,0,6-1.01,8.08-3.03,2.09-2.02,3.14-4.66,3.14-7.93v-1.76h-11.45Z"/>
    <path class="cls-4" d="M354.63,52.08v13.92l-9.79-13.92h-3.42v22.83h4.5v-13.96l9.78,13.96h3.43v-22.83h-4.5ZM334.79,55.08c-2.31-2.31-5.11-3.46-8.42-3.46s-6.11,1.15-8.41,3.46c-2.28,2.28-3.43,5.08-3.43,8.41s1.15,6.12,3.43,8.45c2.3,2.28,5.11,3.42,8.41,3.42s6.11-1.14,8.42-3.42c2.3-2.31,3.45-5.12,3.45-8.45s-1.15-6.13-3.45-8.41ZM331.62,68.87c-1.39,1.39-3.14,2.09-5.25,2.09s-3.86-.7-5.25-2.09c-1.41-1.41-2.12-3.21-2.12-5.38s.71-3.97,2.12-5.38c1.41-1.41,3.17-2.12,5.25-2.12s3.84.71,5.25,2.12c1.42,1.41,2.12,3.21,2.12,5.38s-.7,3.97-2.12,5.38ZM306.83,52.08v22.83h4.5v-22.83h-4.5ZM287.51,52.08v4.3h6.13v18.53h4.5v-18.53h6.17v-4.3h-16.8ZM280.25,70.09c-1.06.58-2.24.87-3.54.87-2.22,0-4.01-.7-5.38-2.09-1.35-1.41-2.03-3.21-2.03-5.38s.68-4,2.03-5.41c1.37-1.39,3.16-2.09,5.38-2.09,1.3,0,2.48.29,3.52.86,1.04.58,1.85,1.38,2.41,2.4l3.88-2.25c-.97-1.65-2.34-2.96-4.09-3.93s-3.66-1.45-5.72-1.45c-3.42,0-6.25,1.14-8.52,3.42-2.23,2.24-3.35,5.06-3.35,8.45s1.12,6.19,3.35,8.45c2.27,2.28,5.1,3.42,8.52,3.42,2.06,0,3.97-.48,5.72-1.45,1.75-.97,3.12-2.28,4.09-3.93l-3.88-2.25c-.54,1-1.34,1.79-2.39,2.36ZM257.33,52.08v15c0,1.22-.36,2.17-1.06,2.85-.71.69-1.77,1.03-3.18,1.03s-2.48-.34-3.18-1.03c-.71-.68-1.06-1.63-1.06-2.85v-15h-4.47v15.36c0,2.41.81,4.33,2.44,5.77,1.63,1.43,3.72,2.15,6.27,2.15s4.66-.72,6.29-2.15c1.63-1.44,2.45-3.36,2.45-5.77v-15.36h-4.5ZM238.37,55.37c-2.09-2.2-4.7-3.29-7.83-3.29h-9.07v22.83h9.07c3.13,0,5.74-1.1,7.83-3.3,2.11-2.17,3.16-4.88,3.16-8.12s-1.05-5.95-3.16-8.12ZM235.37,68.64c-1.24,1.31-2.85,1.96-4.83,1.96h-4.57v-14.22h4.57c1.98,0,3.59.66,4.83,1.99,1.24,1.3,1.86,3.01,1.86,5.12s-.62,3.81-1.86,5.15ZM214.84,55.08c-2.3-2.31-5.11-3.46-8.41-3.46s-6.11,1.15-8.41,3.46c-2.29,2.28-3.43,5.08-3.43,8.41s1.14,6.12,3.43,8.45c2.3,2.28,5.11,3.42,8.41,3.42s6.11-1.14,8.41-3.42c2.31-2.31,3.46-5.12,3.46-8.45s-1.15-6.13-3.46-8.41ZM211.68,68.87c-1.39,1.39-3.14,2.09-5.25,2.09s-3.86-.7-5.25-2.09c-1.41-1.41-2.12-3.21-2.12-5.38s.71-3.97,2.12-5.38c1.41-1.41,3.16-2.12,5.25-2.12s3.84.71,5.25,2.12c1.41,1.41,2.12,3.21,2.12,5.38s-.71,3.97-2.12,5.38ZM188.19,66.3c1.33-.61,2.39-1.52,3.2-2.73.8-1.2,1.2-2.51,1.2-3.93,0-2.09-.74-3.87-2.21-5.35-1.48-1.48-3.28-2.21-5.39-2.21h-9.13v22.83h4.5v-7.93h3.43l4.6,7.93h4.85l-5.05-8.61ZM187.18,62.04c-.61.66-1.34.99-2.19.99h-4.63v-6.75h4.63c.85,0,1.58.33,2.19.98s.91,1.45.91,2.38-.3,1.74-.91,2.4ZM170.67,54.29c-1.53-1.48-3.37-2.21-5.55-2.21h-8.51v22.83h4.5v-7.51h4.01c2.18,0,4.02-.73,5.55-2.21,1.5-1.48,2.25-3.3,2.25-5.45s-.75-3.97-2.25-5.45ZM167.5,62.2c-.63.67-1.42,1-2.38,1h-4.01v-6.92h4.01c.96,0,1.75.33,2.38.98.63.65.95,1.48.95,2.48s-.32,1.8-.95,2.46Z"/>
    <path class="cls-4" d="M300,91.9l8.45-11.08h-5.19l-7.82,10.07v-10.07h-4.5v22.82h4.5v-10.69l8.15,10.69h5.18l-8.77-11.74ZM283.23,95.04c1.33-.61,2.39-1.52,3.2-2.73.8-1.2,1.2-2.51,1.2-3.93,0-2.09-.74-3.87-2.22-5.35-1.47-1.48-3.27-2.21-5.38-2.21h-9.13v22.82h4.5v-7.92h3.43l4.6,7.92h4.86l-5.06-8.6ZM282.22,90.78c-.61.66-1.34.99-2.19.99h-4.63v-6.75h4.63c.85,0,1.58.33,2.19.98.61.65.91,1.45.91,2.38s-.3,1.74-.91,2.4ZM264.27,83.82c-2.3-2.31-5.11-3.46-8.41-3.46s-6.11,1.15-8.42,3.46c-2.28,2.28-3.42,5.08-3.42,8.41s1.14,6.12,3.42,8.45c2.31,2.28,5.11,3.42,8.42,3.42s6.11-1.14,8.41-3.42c2.31-2.31,3.46-5.12,3.46-8.45s-1.15-6.13-3.46-8.41ZM261.11,97.61c-1.39,1.39-3.14,2.09-5.25,2.09s-3.86-.7-5.25-2.09c-1.42-1.41-2.12-3.2-2.12-5.38s.7-3.97,2.12-5.38c1.41-1.41,3.16-2.12,5.25-2.12s3.84.71,5.25,2.12c1.41,1.41,2.12,3.21,2.12,5.38s-.71,3.97-2.12,5.38ZM238.73,80.82l-4.37,16.92-4.8-16.92h-3.85l-4.76,16.92-4.37-16.92h-4.73l6.4,22.82h5.12l4.27-15.06,4.3,15.06h5.12l6.4-22.82h-4.73ZM194.17,80.82v4.3h6.13v18.52h4.5v-18.52h6.16v-4.3h-16.79ZM183.07,99.34v-5.12h8.64v-4.24h-8.64v-4.86h9.46v-4.3h-13.96v22.82h14.12v-4.3h-9.62ZM169.82,80.82v13.92l-9.79-13.92h-3.42v22.82h4.5v-13.95l9.79,13.95h3.42v-22.82h-4.5Z"/>
    <path class="cls-4" d="M127.02,102.92h0s0,.01,0,.01c-11.91,19.99-33.74,33.39-58.73,33.39s-46.83-13.4-58.73-33.39h-.01s50.59-26.51,50.59-26.51l.41-.22v.89h5.77v-3.91l2.02-1.06,8.45,4.43,50.24,26.37Z"/>
    <path class="cls-5" d="M70.84,61.64h-2.51v-6.33h2.51c1.74,0,3.44,1.43,3.44,3.17,0,.87-.42,1.66-1.07,2.23-.64.57-1.5.93-2.37.93Z"/>
    <path class="cls-5" d="M68.33,0v49.93h2.79c2.35,0,4.56.96,6.18,2.51s2.65,3.69,2.65,6.04c0,1.46-.4,2.83-1.09,4.04-1.53,2.68-4.5,4.51-7.74,4.51h-2.79v5.09l8.45,4.43,50.24,26.37c6.05-10.17,9.54-22.06,9.54-34.76C136.56,30.53,106.01.03,68.33,0ZM103.97,77.03l-5.98-7.26-6.82-8.29v15.55h-5.64v-26.88h4.42l12.72,15.52v-15.52h5.81l-.1,26.88h-4.41Z"/>
    <path class="cls-2" d="M127.02,102.92h0s0,.01,0,.01c-20.82,4.4-43.89-1.65-58.68-16.03v-14.78l14.73-8.73c.83.25,1.65.51,2.47.79v12.85h5.64v-10.67c2.34,1.02,4.62,2.16,6.82,3.41l5.98,7.26h4.41c8.96,7.7,15.62,17.13,18.64,25.89Z"/>
    <path class="cls-5" d="M40.71,72.16c-1.62,0-3.18-.28-4.56-1,1.86-1.28,3.75-2.45,5.65-3.5h6.45l-.1.26c-1.14,2.98-4.42,4.24-7.44,4.24Z"/>
    <path class="cls-5" d="M68.33,72.12v14.78h0c-16.68,15.1-36.45,20.76-58.77,16.03h-.01c3.25-9.57,11.81-20.27,21.97-28.34,2.61,2.09,5.73,3.01,9.16,3.01s6.86-1.02,9.47-3.54c3.52-3.39,3.92-6.95,3.81-11.3l6.59,4.29v10.04h5.77v-6.28l2.02,1.31Z"/>
    <path class="cls-3" d="M68.33,0c-13.85,15.08-20.48,35.89-16.23,56.16.01.02.01.05.02.07,0,.04.01.07.02.11.46,2.15,1.13,4.3,1.81,6.42l6.59,4.29v-17.12h10.58c2.35,0,4.56.96,6.18,2.51s2.65,3.69,2.65,6.04c0,1.46-.4,2.83-1.09,4.04-1.53,2.68-4.5,4.51-7.74,4.51h-4.81v3.78l2.02,1.31,14.73-8.73c1.37-4.15,2.15-8.67,2.47-13.24,1.35-19.1-4.23-36.02-17.2-50.15Z"/>
    <path class="cls-1" d="M52.12,56.23s-.01-.05-.02-.07c.02.02.03.04.04.06h-.02Z"/>
    <path class="cls-6" d="M60.54,77.09c-.14-.22-.28-.44-.41-.67-2.65-4.3-4.66-8.91-6.18-13.66,2.11-.31,4.32-.58,6.59-.77v15.1Z"/>
    <path class="cls-6" d="M83.06,63.39c-1.51,4.61-3.67,9.08-6.28,13.16-2.47,3.85-5.33,7.37-8.45,10.34h0s0,.01,0,.01c-2.77-3.02-5.6-6.39-7.78-9.81h5.77v-10.06h4.81c3.24,0,6.21-1.83,7.74-4.51,1.44.23,2.84.52,4.2.87Z"/>
  </g>
</svg>