<?xml version="1.0" encoding="UTF-8"?>
<svg id="Layer_2" data-name="Layer 2" xmlns="http://www.w3.org/2000/svg" viewBox="0 0 299.75 299.5">
  <defs>
    <style>
      .cls-1, .cls-2, .cls-3, .cls-4 {
        fill: none;
      }

      .cls-2 {
        stroke-width: 2px;
      }

      .cls-2, .cls-3, .cls-4 {
        stroke: #0ea5e9;
        stroke-miterlimit: 10;
      }

      .cls-4 {
        stroke-width: 7px;
      }
    </style>
  </defs>
  <g id="Layer_1-2" data-name="Layer 1">
    <g>
      <g>
        <g>
          <path id="_S_" data-name="&amp;lt;S&amp;gt;" class="cls-3" d="m246.79,155.85c-.43-.54-.74-.98-1.33-1.42-.22-.16-.58-.26-.85-.2-.56.11-.96.47-1.15.99-.13.37,0,.77.26,1.05.32.34.71.6.8,1.11.12.6-.24,1.06-.72,1.41-.22.16-.49.22-.75.17-.76-.12-1.23-.86-1.68-1.45"/>
          <g id="_A_" data-name="&amp;lt;A&amp;gt;">
            <path class="cls-3" d="m237.34,153.9c1.74-.79,3.48-1.58,5.22-2.36.11-.07.25-.07.33,0,.11.09.06.27-.03.46-.82,1.81-1.58,3.33-2.36,4.99"/>
            <line class="cls-3" x1="239.11" y1="153.27" x2="241.02" y2="155.27"/>
          </g>
          <path id="_M_" data-name="&amp;lt;M&amp;gt;" class="cls-2" d="m223.88,148.53c2.41-2.31,4.81-4.62,7.22-6.93.48-.49.93-.49,1.28-.25.56.39.28.98,0,1.44-1.17,2.06-2.27,4.17-3.52,6.19-.27.44-.31.54-.6,1.1-.21.39-.56,1.02-.21,1.49.3.42.87.44,1.46.11,2.43-1.32,4.87-2.64,7.3-3.96.82-.53,1.12-.38,1.36-.21.43.29.44,1.02,0,1.43-2.37,2.29-4.75,4.58-7.12,6.88"/>
          <path id="_L_" data-name="&amp;lt;L&amp;gt;" class="cls-2" d="m226.93,134.66c-2.03,1.96-4.06,3.93-6.09,5.89-.2.14-.64.49-.87,1.1-.05.15-.18.5-.13.95.06.52.33.89.51,1.12.91,1.17,2.38,2.6,2.61,2.82"/>
          <line id="_I_" data-name="&amp;lt;I&amp;gt;" class="cls-2" x1="224.5" y1="132.18" x2="216" y2="140.45"/>
          <g id="_F_" data-name="&amp;lt;F&amp;gt;">
            <path class="cls-2" d="m222.17,130.82l-3.61-3.61c-.21-.21-.59-.47-1.12-.53-.56-.05-1.02.18-1.25.33-.03.03-2.57,2.49-2.59,2.52-.07.06-4.04,3.92-4.1,3.98"/>
            <line class="cls-2" x1="218.43" y1="134.36" x2="213.6" y2="129.53"/>
          </g>
        </g>
        <path class="cls-4" d="m11.95,150.38c21.62,21.71,43.11,43.16,64.73,64.87,1.29,1.51,3.43,3.67,6.57,5.51,2.27,1.33,7.17,4.12,13.66,3.41,4.22-.46,7.32-2.25,10.24-4.2,4.87-3.26,11.62-10.57,22.32-20.22,12.56-11.32,8.54-30.55-2.49-38.8-8.84-6.61-22.54-6.19-31.32,2.17-10.06,9.58-9.32,25.62-.66,34.86,7.35,7.84,18.93,8.59,27.11,5.71,4.68-1.64,7.92-4.36,9.85-6.3l39.98-38.8c3.28-2.82,5.91-8.21,6.74-13.32.06-.35.11-.7.16-1.06.34-2.7,1.36-13.98-7.35-22.13-6.37-5.96-15.29-7.75-22.87-5.74-5.96,1.58-9.55,5.14-10.31,5.85-9.5,8.95-10.21,23.28-2.8,32.78,7.74,9.93,20.32,10.88,28.17,7.81,9.39-3.68,10.11-6.24,13.92-9.65,14.24-12.77,20.24-20.3,37.94-37.43,2.33-2.26,4.29-4.9,5.66-7.84,1.25-2.68,1.82-5.1,1.77-9.49-.02-2.03-.36-9.16-5.69-15.58-4.46-5.37-9.87-7.2-11.03-7.57-3.56-1.14-7.46-1.4-11.55-.66-11.81,2.15-19.12,11.52-20.22,20.4-1.11,8.93,3.04,17.06,6.22,20.35,34.93,36.24,75.37,77.6,107.41,110.56"/>
      </g>
      <rect class="cls-1" width="299.75" height="299.5"/>
    </g>
  </g>
</svg>